<?xml version="1.0" standalone="no"?>
<!DOCTYPE svg PUBLIC "-//W3C//DTD SVG 1.1//EN" "http://www.w3.org/Graphics/SVG/1.1/DTD/svg11.dtd" >
<svg xmlns="http://www.w3.org/2000/svg">
<metadata></metadata>
<defs>
<font id="cac_champagneregular" horiz-adv-x="600" >
<font-face units-per-em="2048" ascent="1638" descent="-410" />
<missing-glyph horiz-adv-x="500" />
<glyph horiz-adv-x="2048" />
<glyph horiz-adv-x="2048" />
<glyph unicode="&#xd;" horiz-adv-x="500" />
<glyph unicode=" "  horiz-adv-x="500" />
<glyph unicode="&#x09;" horiz-adv-x="500" />
<glyph unicode="&#xa0;" horiz-adv-x="500" />
<glyph unicode="!" horiz-adv-x="500" d="M140 65q0 34 16 64q22 41 60 41q46 0 46 -54q0 -33 -19 -70q-24 -46 -59 -46q-44 0 -44 65zM242 249v25q2 -28 130 415q27 95 119 365q41 109 87 109q31 0 31 -51q0 -57 -170 -440q-146 -330 -197 -423z" />
<glyph unicode="&#x22;" d="M343 930q90 73 101 123q-68 -2 -68 52q0 30 23 65q27 42 64 42q52 0 52 -76q0 -59 -56 -126q-54 -63 -113 -82zM614 930q90 73 101 123q-68 -2 -68 52q0 30 23 65q27 42 64 42q52 0 52 -76q0 -59 -56 -126q-54 -63 -113 -82z" />
<glyph unicode="#" d="M128 466l13 48h96l47 174h-96l12 47h96l62 227h53l-62 -227h113l62 227h53l-62 -227h97l-13 -47h-96l-47 -174h96l-12 -48h-96l-66 -241h-53l65 241h-112l-64 -241h-53l64 241h-97zM290 514h113l47 174h-113z" />
<glyph unicode="$" horiz-adv-x="700" d="M33 268q0 65 27 119q33 67 92 67q67 0 67 -67q0 -27 -14 -51q-16 -28 -41 -28h-18q2 44 -29 44q-51 0 -51 -96q0 -76 44.5 -133.5t117.5 -77.5q7 6 12 20l178 513q0 -67 -71.5 69t-71.5 183q0 100 64 179q61 74 159 108q20 7 105 20q12 2 23.5 38.5t27.5 36.5q9 0 15 -8 q-16 -41 -20 -71q146 -52 146 -167q0 -51 -29 -88q-31 -40 -81 -40q-80 0 -80 69q0 44 35 60q8 0 11 -4q2 -36 39 -36q58 0 58 66q0 40 -35.5 74.5t-74.5 32.5q-10 -10 -79.5 -207t-69.5 -213q0 -12 51 -58q66 -59 95 -102q51 -74 51 -156q0 -36 -19 -103 q-34 -119 -133.5 -191.5t-224.5 -72.5q-8 0 -58 5l-47 -133l-33 1l46 135q2 5 -6 9q-30 9 -56 25q-122 73 -122 229zM263 34q33 -6 88 -6q4 2 42 13q83 23 141 88q61 70 61 153q0 61 -49.5 153.5t-101.5 120.5zM360 913q0 -104 101 -201l133 372v19q-8 4 -20 4 q-82 0 -147 -55q-67 -58 -67 -139z" />
<glyph unicode="%" horiz-adv-x="800" d="M134 7l621 912h54l-624 -912h-51zM153 592q0 107 54 212q64 125 162 125q79 0 79 -121q0 -93 -51 -210q-61 -141 -141 -141q-49 0 -78 45q-25 38 -25 90zM219 530q0 -44 37 -44q54 0 99 111q58 144 58 243q0 62 -44 62q-47 0 -91 -121q-59 -161 -59 -251zM492 130 q0 108 54 213q64 126 162 126q79 0 79 -120q0 -93 -51 -212q-61 -143 -141 -143q-49 0 -78 45q-25 39 -25 91zM558 68q0 -44 37 -44q53 0 99 113q59 146 59 241q0 64 -45 64q-46 0 -91 -123q-59 -161 -59 -251z" />
<glyph unicode="&#x26;" horiz-adv-x="865" d="M62 251q0 264 389 499q15 9 19 18q-6 55 -6 87q0 64 11 107q21 81 78 148q64 75 133 75q47 0 74 -35t27 -83q0 -96 -85 -215q-70 -98 -164 -170q12 -48 30 -69q90 44 129 44q72 0 115 -49t43 -122q0 -47 -34 -126.5t-67 -115.5q19 -77 19 -119q0 -174 -125 -327 q-132 -162 -303 -162q-55 0 -107 28q-64 35 -64 92q0 25 19.5 50t43.5 25q39 0 39 -33q0 -17 -24 -17q-27 0 -27 -37q0 -80 120 -80q61 0 120 29q119 58 197 170q81 117 81 245q0 69 -13 99q-187 -213 -401 -213q-115 0 -191 71.5t-76 185.5zM103 212q0 -1 6 -30 q15 -78 80 -121q60 -40 142 -40q58 0 128 22q77 24 163 95q97 80 97 113q0 34 -79 173q-59 105 -83 138q-22 -13 -40.5 -51t-18.5 -66q0 -36 31 -36q13 0 10 -13q-4 -19 -16 -19q-49 0 -49 66q0 80 68 145q-12 29 -34 69q-203 -132 -270 -193q-135 -124 -135 -252zM494 850 q0 -43 8 -64q56 27 142 119q105 112 105 184q0 65 -63 65q-71 0 -128 -84q-48 -71 -60 -149q0 -13 -2 -41zM581 588q11 -26 109 -188q20 -34 50 -106q7 -8 12 -5q76 104 76 202q0 141 -131 141q-68 0 -116 -44z" />
<glyph unicode="'" horiz-adv-x="400" d="M378 930q91 73 102 123q-69 -2 -69 52q0 34 27.5 70.5t59.5 36.5q52 0 52 -76q0 -60 -55 -124.5t-114 -83.5z" />
<glyph unicode="(" d="M12 -283q0 55 56 229q207 641 676 1147q298 321 492 398q-395 -378 -708 -831q-331 -478 -516 -961v18z" />
<glyph unicode=")" d="M-240 -306q329 348 634 839q328 529 460 960q4 -11 4 -12q0 -53 -29 -170q-227 -914 -965 -1540q-40 -34 -104 -77z" />
<glyph unicode="*" horiz-adv-x="500" d="M412 1102q44 30 121 84q-39 27 -103 64l29 38q38 -38 86 -67q20 84 22 112l45 -8q-11 -35 -32 -118q50 -3 69 -3q11 0 56 3l4 -48l-127 9q2 -31 24 -146l-41 -20l-2 6v12q-2 18 -20 137q-14 -13 -51 -43l-56 -49z" />
<glyph unicode="+" horiz-adv-x="700" d="M69 410l14 59h266l74 269h65l-74 -269h265l-17 -59h-263l-74 -268h-65l71 268h-262z" />
<glyph unicode="," horiz-adv-x="500" d="M159 -112q16 16 47 49q34 37 38 67q-5 6 -14 6q-3 0 -7 -1.5t-7 -1.5q-37 0 -37 52q0 32 20 68q25 46 65 46q54 0 54 -66q0 -53 -42 -121q-50 -80 -117 -98z" />
<glyph unicode="-" horiz-adv-x="400" d="M135 266q11 28 17 60q54 -2 84 -2q37 0 69 2q-11 -35 -14 -60q-33 3 -64 3q-29 0 -92 -3z" />
<glyph unicode="." horiz-adv-x="500" d="M189 67q0 37 19 69q21 38 56 38q48 0 48 -65q0 -32 -21 -68q-24 -41 -54 -41q-48 0 -48 67z" />
<glyph unicode="/" horiz-adv-x="924" d="M-29 -49q715 993 945 1381q10 -7 31 -7q27 0 44 12q26 18 39 23q-491 -659 -939 -1365q-5 0 -14 1.5t-14 1.5q-31 0 -92 -47z" />
<glyph unicode="0" horiz-adv-x="1000" d="M144 408q0 155 103 349q95 180 221 293q161 144 329 144q225 0 225 -296q0 -129 -66 -328q-79 -237 -199 -385q-151 -185 -336 -185q-153 0 -224 142q-53 106 -53 266zM240 275q0 -244 185 -244q155 0 291 198q107 156 182 401q63 205 63 312q0 81 -32 142 q-44 83 -137 83q-208 0 -389 -338q-163 -304 -163 -554z" />
<glyph unicode="1" horiz-adv-x="700" d="M56 3q0 7 26 13q58 7 65 9q42 9 54 30q37 67 139 332q156 405 225 631l-7 3q-39 -46 -118 -137q-88 -97 -142 -97q-27 0 -47 19.5t-20 46.5q0 22 19.5 42t40.5 16q25 -47 52 -47q50 0 163 143q83 105 106 148q-7 1 125 1q-38 -78 -210 -550q-177 -487 -177 -534 q0 -40 47 -47l78 -8l4 -8q0 -14 -28 -14t-84 2.5t-84 2.5q-69 0 -141 -5l-68 -4q-18 0 -18 12z" />
<glyph unicode="2" horiz-adv-x="892" d="M-13 -4q28 79 225 239q612 496 612 769q0 65 -50 100q-44 31 -112 31q-175 0 -313 -159q-45 -52 -45 -94q0 -36 36 -34q3 -2 11 -9q5 -43 -13 -75q-21 -37 -63 -37q-56 0 -56 70q0 71 56 144q173 225 382 225q114 0 181.5 -67t67.5 -181q0 -324 -627 -699 q-149 -89 -190 -141q3 -1 16 -1q-61 0 77 32.5t179 32.5q59 0 170 -29t157 -29q90 0 90 72q0 19 -8 42v11q16 8 17 8q21 0 20 -41q0 -32 -20 -71q-54 -109 -177 -109q-28 0 -85 16l-98 27q-142 28 -207 28q-116 0 -224 -75q-5 4 -9 4z" />
<glyph unicode="3" horiz-adv-x="849" d="M25 244q0 45 21 80q24 41 66 41q21 0 38.5 -18.5t17.5 -39.5t-8 -29q-11 -4 -36 -20q-27 -24 -27 -63q0 -89 107 -132q70 -28 145 -28q125 0 235 80q125 91 125 219q0 126 -176 249q-21 15 -21 37q0 34 55 53q108 37 171 134q56 86 56 178q0 165 -190 165q-87 0 -161 -45 q-88 -53 -88 -138q0 -19 10.5 -36t10.5 -19q0 -11 -16.5 -22.5t-27.5 -11.5q-48 0 -48 53q0 66 80 150q99 103 257 103q108 0 184 -64q81 -68 81 -174q0 -174 -249 -273q-3 -4 -9 -11q2 -5 10 -15q170 -118 170 -243q0 -70 -40 -144q-61 -113 -177 -186t-242 -73 q-43 0 -118 11q-7 4 -24 11q-182 69 -182 221z" />
<glyph unicode="4" horiz-adv-x="900" d="M13 348q0 33 53 48q68 12 105 39q16 11 88 83q227 227 490 645h14q6 0 14 -6q73 -3 151 -8q-97 -266 -280 -785q43 -4 57 -4q59 0 98 21q11 6 31 30q14 17 33 17q24 0 24 -22q0 -48 -110 -80q-80 -23 -139 -23q-8 0 -7 1q-8 -10 -19 -38q-62 -154 -62 -200q0 -38 60 -47 q70 -11 73 -14q-9 -16 -24 -16q-18 1 -105 5l-106 6q-22 0 -80 -3l-113 -6q-3 2 -8 10v8q16 6 49 13q65 6 89 28q19 16 54 85q62 123 67 172q-5 6 -16 8q-41 7 -200 39q-100 20 -126 24q-17 0 -55.5 -27.5t-63.5 -27.5q-36 0 -36 25zM197 414q108 -8 340 -37 q100 222 253 749l-20 -3q-170 -244 -264 -366q-161 -207 -309 -343z" />
<glyph unicode="5" horiz-adv-x="900" d="M28 241q0 123 87 123q22 0 39 -19.5t17 -42.5q0 -14 -9 -26q-24 1 -43 -25t-19 -51q0 -84 87 -128q64 -32 137 -32q187 0 327 211q119 179 119 339q0 203 -168 203q-99 0 -182 -62q-47 -35 -111 -115q-50 -62 -68 -62q-26 0 -26 34t34 63q45 39 47 42q7 10 50 136 l109 316q9 25 65 25q33 -2 205 -15l205 -16q146 0 143 95h16q11 -11 11 -25q0 -38 -30 -76q-49 -61 -98 -80.5t-110 -15.5l-325 23q-37 3 -53 -5q-33 -16 -98 -209q-31 -93 -31 -99l-7 -27l12 11q167 102 279 102t181 -71.5t69 -183.5q0 -134 -92 -281q-88 -139 -207 -215 q-124 -79 -262 -79q-103 0 -193 58q-107 69 -107 180z" />
<glyph unicode="6" horiz-adv-x="865" d="M119 364q0 217 160 461q174 265 410 346q76 26 123 26q48 0 92 -22q59 -30 59 -83q0 -32 -22.5 -55.5t-54.5 -23.5q-20 0 -41 13.5t-21 32.5l15 18t15 35q0 44 -59 44q-98 0 -213 -99q-100 -86 -180 -213q-109 -173 -140 -325l5 -6q175 205 352 205q107 0 169 -78 q56 -71 56 -181q0 -167 -123 -309q-130 -150 -304 -150q-63 0 -110 22q-188 87 -188 342zM228 250q0 -56 8 -82q41 -131 169 -131q219 0 336 348q0 8 2 21q19 56 19 116q0 168 -148 168q-4 0 -30 -6q-97 -8 -204 -103t-134 -191q-18 -63 -18 -140z" />
<glyph unicode="7" horiz-adv-x="790" d="M208 907q0 30 41 106.5t117 129.5q81 57 165 57q72 0 198 -31t176 -31q13 0 57.5 32.5t73.5 32.5q36 0 36 -26q0 -31 -54 -50l-80 -20q-16 -4 -27 -14q-27 -24 -90 -98q-170 -198 -330 -519q-130 -261 -130 -373q0 -77 51 -77q56 0 58 63q0 11 -8.5 27.5t-8.5 18.5 q0 20 22.5 39t42.5 19q56 0 56 -60q0 -54 -49 -94t-104 -40q-138 0 -138 182q0 110 61 239q43 91 149 248q94 139 387 432q-14 0 -108 -1l-263 -1q-105 0 -176 -39q-95 -52 -95 -129q0 -5 1.5 -15.5t1.5 -15.5q0 -12 -16 -19q-14 0 -17 27z" />
<glyph unicode="8" horiz-adv-x="869" d="M105 308q0 138 123 247q72 64 226 142q-121 119 -121 218q0 131 109 215q98 76 222 76q108 0 179 -60q75 -63 75 -170q0 -91 -78 -173q-70 -74 -164 -105q-3 -1 -28 -13q2 -3 7 -10q157 -128 157 -282q0 -157 -119.5 -276t-276.5 -119q-132 0 -221.5 89t-89.5 221z M176 279q0 -111 62.5 -180t172.5 -69q129 0 222 81q98 85 98 212q0 57 -26 113q-8 16 -82 108q-11 14 -65 64q-66 61 -82 68q-41 -9 -115 -60q-109 -75 -155 -194q-30 -77 -30 -143zM431 966q0 -38 11 -69q26 -75 150 -168q26 -20 28 -20q-12 0 21 6q64 12 124 85 q54 66 77 139q8 26 8 68q0 79 -48.5 128t-128.5 49q-102 0 -170 -57q-72 -60 -72 -161z" />
<glyph unicode="9" horiz-adv-x="825" d="M115 109q0 75 62 75q21 0 39 -15t18 -36q0 -2 -14 -19t-14 -31q0 -52 72 -52q93 0 195 103q165 166 241 453q26 98 26 109q0 5 1.5 14t1.5 14q-142 -234 -314 -234q-112 0 -175 81q-58 73 -58 188q0 173 116 308q121 141 292 141q150 0 222 -144q51 -102 51 -242 q0 -182 -113 -407q-125 -248 -300 -351q-114 -67 -196 -67q-54 0 -98 25q-55 31 -55 87zM278 703q0 -186 156 -186q131 0 239 154q54 77 66 126q22 89 22 157q0 223 -162 223q-128 0 -230 -171q-91 -153 -91 -303z" />
<glyph unicode=":" horiz-adv-x="467" d="M89 61q0 37 20 70q24 39 58 39q48 0 48 -56q0 -38 -21 -73q-23 -41 -59 -41q-46 0 -46 61zM191 374q0 34 24.5 71.5t57.5 37.5q44 0 44 -54q0 -39 -19 -74q-23 -42 -59 -42q-48 0 -48 61z" />
<glyph unicode=";" horiz-adv-x="500" d="M73 -116l44 52q36 43 40 72q-1 -1 -28 -1q-37 0 -37 51q0 36 27 75.5t61 39.5q51 0 51 -68q0 -67 -47.5 -133t-110.5 -88zM201 377q0 33 23 69q26 40 57 40q45 0 45 -58q0 -36 -21 -71q-23 -41 -57 -41q-47 0 -47 61z" />
<glyph unicode="&#x3c;" horiz-adv-x="800" d="M93 407v69l710 320v-77l-626 -277l626 -277v-77z" />
<glyph unicode="=" horiz-adv-x="700" d="M79 311l15 59h596l-18 -59h-593zM132 505l18 59h593l-15 -59h-596z" />
<glyph unicode="&#x3e;" horiz-adv-x="800" d="M128 88v77l626 277l-626 277v77l709 -320v-69z" />
<glyph unicode="?" horiz-adv-x="711" d="M233 843q0 58 35.5 131.5t81.5 108.5q141 110 283 110q107 0 186 -72q81 -75 81 -181q0 -180 -216 -306q-43 -28 -159 -103q-149 -96 -149 -183q0 -60 58 -60q34 0 59.5 25t25.5 59q0 15 -2 20q0 2 -6 9t-6 12q0 12 29 22q32 0 32 -45q0 -22 -33 -74q-37 -58 -106 -58 q-82 0 -82 88q0 85 115 189l213 191q114 125 114 263q0 75 -46.5 124t-120.5 49q-124 0 -234 -130q-101 -120 -101 -228q0 -48 29.5 -79.5t76.5 -31.5q62 0 103.5 43.5t34.5 105.5q17 0 22 -14q8 -22 8 -29q0 -29 -29 -70q-18 -26 -61.5 -44.5t-77.5 -18.5q-72 0 -116 54 q-42 50 -42 123zM263 64q0 35 23 70q26 39 59 39q44 0 44 -56q0 -32 -19 -68q-24 -46 -62 -46q-45 0 -45 61z" />
<glyph unicode="@" horiz-adv-x="1296" d="M134 444q0 312 224 539t536 227q201 0 333 -135.5t132 -337.5q0 -150 -71 -281q-73 -137 -200 -207q-97 -54 -198 -54q-53 0 -79 38q-17 25 -32 87q-97 -122 -172 -122q-76 0 -112 74q-27 56 -27 142q0 141 96 286q106 161 241 161q75 0 117 -92q10 23 33 68h90 q5 -3 5 -12q-5 -17 -33 -101q-141 -422 -141 -453q0 -46 32 -46q113 0 222 103q188 178 188 423q0 177 -121.5 297.5t-298.5 120.5q-286 0 -503.5 -226t-217.5 -513q0 -239 150 -403q154 -169 391 -169q141 0 311 76l26 -33q-187 -84 -325 -84q-264 0 -432 183 q-164 178 -164 444zM567 312q0 -83 56 -83q135 0 239 368q24 85 24 116q0 118 -68 118q-145 0 -233 -410q-18 -84 -18 -109z" />
<glyph unicode="A" horiz-adv-x="1438" d="M20 104q0 58 39.5 110.5t96.5 52.5q44 0 76.5 -26t32.5 -69q0 -65 -60 -65q-15 0 -34 11q-26 15 -14 49q8 24 8 29q-9 20 -31 20q-37 0 -63 -40q-24 -35 -24 -74q0 -76 74 -123q62 -39 129 -39q114 0 238 78q109 68 189 169q-136 148 -136 337q0 119 62 195q66 82 183 82 q82 0 194 -70q5 8 9 18q19 47 71 167q70 159 80 177q67 120 135 120q99 0 99 -199q0 -81 -23 -235q-17 -107 -56 -378q-33 -245 -33 -285q0 -148 66 -148q32 0 59 34t29 67q12 -5 12 -23q0 -46 -38.5 -79t-85.5 -33q-77 0 -113 82q-5 11 -26 147q-23 147 -51 224 q-55 149 -140 237q-14 -35 -54 -125q-2 -4 -103 -205q-12 -24 -44 -73q-28 -43 -28 -48q11 -17 48 -33t59 -16q15 0 32 6q-11 -27 -46 -27q-57 0 -113 41q-2 -5 -10 -16q-76 -101 -186 -163q-117 -65 -237 -65q-102 0 -179 47q-93 57 -93 157zM571 524q0 -181 124 -310 q4 -1 8 -1q38 48 67 89q60 87 115 204q57 121 57 135q0 9 -31 35q-93 77 -175 77q-92 0 -135 -88q-30 -61 -30 -141zM1008 700q50 -64 72 -116q27 -63 51 -142q4 -13 36 -126q4 15 8 41q9 53 102 449q49 208 49 271q0 112 -57 112q-43 0 -88 -82q-14 -25 -70 -154 q-27 -62 -69 -163q-10 -24 -34 -90z" />
<glyph unicode="B" horiz-adv-x="1420" d="M2 88q0 62 39 112.5t100 50.5q99 0 99 -85q0 -75 -62 -75q-57 0 -57 55q0 3 8.5 20.5t8.5 21.5q0 19 -26 19q-36 0 -60 -40q-20 -35 -20 -74q0 -92 74 -138q59 -37 144 -37q152 0 294 139q132 129 190 308q2 5 41 113q32 93 100 278q59 152 156 280q19 25 106 111 q-9 2 -32 8q-97 21 -180 21q-159 0 -311 -79q-157 -82 -236 -214q-60 -100 -60 -197q0 -149 153 -149q128 0 211 116q71 101 79 237q23 -21 23 -52q0 -75 -51 -159.5t-117 -125.5q-69 -43 -138 -43q-95 0 -156.5 65.5t-61.5 160.5q0 70 38.5 159t88.5 141q85 87 231 133 q129 41 266 41q81 0 212 -21q9 -2 64 -19q110 74 170 74q30 0 39 -24h-10q-89 0 -159 -64q14 -9 25 -16q75 -46 127 -121q58 -83 58 -164q0 -171 -234 -288l-1 -5q147 -95 147 -260q0 -164 -135 -289q-131 -123 -297 -123q-62 0 -120 30q-74 38 -74 103q0 33 26 54v-23 q1 -8 1 -19q0 -107 141 -107q155 0 259 173q86 143 86 284q0 52 -4 68q-20 83 -69 97q-49 -23 -104 -23q-85 0 -85 45q0 46 70 46q29 0 129 -40q13 0 44 32q121 124 121 309q0 131 -94 190q-7 4 -41 25l-37 -45q-81 -99 -145 -279q-28 -82 -90 -259q-15 -39 -51 -136 q-60 -170 -206 -323q-162 -171 -317 -193l-83 -12q-96 0 -167 51q-78 57 -78 150z" />
<glyph unicode="C" horiz-adv-x="1259" d="M9 863q0 111 93 196q78 71 197 107q60 18 144 18q152 0 184 -66v-15q-75 53 -177 53q-150 0 -272 -77q-135 -85 -135 -216q0 -170 271 -257q5 -1 25 -6q21 44 77 151q97 175 305 323q223 158 410 158q154 0 154 -133q0 -137 -120 -285q-110 -135 -245 -196 q-177 -80 -370 -80q-59 0 -99 10q-4 -18 -17 -67q-41 -159 -41 -278q0 -285 247 -285q123 0 243 82t171 196q26 58 26 104q0 122 -105 122q-5 0 -11 -1h-11q-23 0 -55 -21q-35 -23 -35 -44q0 -8 18.5 -20t18.5 -35q0 -22 -18 -39t-40 -17q-44 0 -44 58q0 59 57 102 q63 48 118 48q66 0 105 -48q36 -45 36 -112q0 -70 -33 -146q-55 -127 -170 -196q-110 -67 -251 -67q-189 0 -287 141q-82 118 -82 297q0 91 37 241q-319 86 -319 300zM464 584q29 -9 84 -9q182 0 349 77q199 92 296 264q61 108 61 186q0 98 -109 98q-192 0 -404 -203 q-198 -189 -277 -413z" />
<glyph unicode="D" horiz-adv-x="1521" d="M-16 0q0 31 41 31q6 0 11 -1l361 -48q113 32 194 167q37 62 100 224q5 18 19 63q84 245 116 320q89 208 217 355q-28 24 -118 40q-75 14 -129 14q-51 0 -134 -19q-152 -35 -287 -178q-142 -151 -142 -302q0 -66 41 -106t107 -40q106 0 196 108q84 101 84 198q0 53 -23 68 h18q32 0 32 -70q0 -114 -99 -226t-212 -112q-92 0 -148 67q-54 63 -54 156q0 104 57 215q77 150 244 223q131 57 286 57q126 0 242 -32q12 -3 40 -14.5t31 -11.5q-12 0 -12 4q0 8 57 35q84 39 108 39q43 0 49 -26h-13q-87 0 -147 -65q3 -5 13 -14q144 -80 225.5 -216 t81.5 -300q0 -157 -74 -317q-185 -399 -659 -399q-206 0 -345 33q-35 -15 -64 -21q-63 -12 -96 -12q-57 0 -121 15q-28 7 -61 39t-33 59zM470 -29q228 -29 295 -29q170 0 276 48q163 73 252 242q76 143 76 298q0 208 -111 391q-62 102 -152 158q-6 3 -25 14 q-48 -13 -191 -443q-23 -71 -88 -250q-31 -82 -94 -194q-48 -85 -145 -169q-10 -8 -36 -29q-9 -7 -57 -37z" />
<glyph unicode="E" horiz-adv-x="1170" d="M39 313q0 290 457 392q5 3 15 8q-73 79 -106 186q-21 16 -60 54q-55 64 -55 151q0 64 41.5 111t105.5 47q18 0 41 -10q27 -11 27 -26t-12 -15q-2 0 -20.5 12t-29.5 12q-26 0 -55 -22q-56 -43 -56 -119q0 -81 78 -150l5 7q54 138 215 207q123 53 266 53q224 0 224 -128 q0 -93 -117 -171q-129 -86 -306 -86q-105 0 -184 28q-8 3 -24 6q1 -10 5 -25q30 -114 70 -114q5 0 18.5 4t18.5 5q110 11 150 11q104 0 104 -23q0 -28 -41 -53q-29 -18 -49 -21q-6 -1 -46 -1q-51 0 -80 7q-9 2 -43.5 16t-38.5 14q-21 0 -115 -45q-126 -60 -215 -175 q-97 -126 -97 -256q0 -145 146 -223q113 -60 244 -60q23 0 108 16q137 26 253 130q127 114 127 241q0 114 -107 114q-30 0 -64 -16q-40 -20 -40 -46q0 -5 17 -18t17 -33q0 -22 -17 -41.5t-39 -19.5q-56 0 -56 60q0 58 59 105q56 43 116 43q69 0 110.5 -46t41.5 -116 q0 -90 -51 -178q-133 -229 -455 -229q-134 0 -250 58q-139 70 -208 205q-43 85 -43 163zM492 900q10 -2 10 -5q105 -38 202 -38q138 0 264 74q118 69 118 152q0 94 -168 94q-112 0 -244 -58q-121 -53 -174 -189q-1 -4 -8 -30z" />
<glyph unicode="F" horiz-adv-x="1195" d="M23 57q0 66 36 115q40 55 103 55q92 0 92 -85q0 -71 -61 -71q-45 0 -53 42q-3 14 8 47q-2 4 -12 13q-79 -10 -79 -111q0 -80 61 -125q54 -40 136 -40q83 0 168 45q186 99 299 380q37 91 64 166v12q3 3 -5 3q-50 0 -166 -100q-131 -113 -131 -216q0 -12 2 -24 q-23 10 -23 47q0 96 114 200q96 87 217 137q3 1 10 7l20 56q9 28 34 99q76 211 188 326q68 70 114 70q9 0 17 -8q-1 -4 -4 -8q-95 -27 -148 -177q-26 -73 -60 -190q-33 -113 -33 -122v-16q4 -3 17 -3q44 0 58 7q5 2 45 32q74 56 129 56q37 0 37 -27q0 -56 -82 -77 q-4 -1 -105 -22q-28 -22 -40 -73q-5 -20 6 -45h-16q-18 10 -18 44q0 7 7 28t7 28l4 15h-60q-6 -23 -27 -87q-81 -211 -171 -326q-209 -267 -474 -267q-92 0 -155 48q-70 53 -70 142zM180 765q0 243 235 384q189 113 404 113q-28 0 26.5 -2t84.5 -2q44 -4 177 -22 q18 -2 149 -27q80 -15 128 -15q161 0 223 81q5 0 5 -8q0 -30 -58 -91t-90 -70q-62 -18 -92 -18q-78 0 -314 63q-42 9 -146 31q-89 19 -173 19q-315 0 -436 -224q-62 -114 -62 -238q0 -76 35 -126q40 -56 113 -56q109 0 189 103q69 91 83 207q15 -27 15 -43q0 -33 -19 -82 q-35 -89 -102 -149q-76 -66 -165 -66q-99 0 -156 71q-54 66 -54 167z" />
<glyph unicode="G" horiz-adv-x="1316" d="M4 -231q0 62 39.5 109.5t100.5 47.5q43 0 73.5 -24.5t30.5 -65.5q0 -24 -19.5 -45.5t-43.5 -21.5q-20 0 -37.5 17.5t-17.5 37.5q0 15 21 49q-12 12 -24 12q-42 0 -65 -38q-20 -32 -20 -76q0 -107 104 -160q77 -39 178 -39q204 0 398 150q165 128 260 305q11 20 47 102 q8 18 29 82q25 76 25 91v20l-7 6q-85 -83 -197 -136q-122 -59 -230 -59q-157 0 -257 92q-102 96 -102 252q0 38 6 79q-258 124 -258 317q0 146 124 241q110 84 245 84q85 0 118 -49l-5 -15q-44 27 -109 27q-127 0 -224 -78q-105 -84 -105 -208q0 -183 220 -276q5 6 7 10 q71 236 337 425q250 178 460 178q81 0 129 -42q52 -44 52 -123q0 -119 -85 -236q-219 -300 -630 -300q-73 0 -153 7q-1 -9 0 -46v-33q0 -263 242 -263q243 0 431 215q9 11 26 81q11 44 63 103q56 62 97 62q36 0 36 -38q0 -84 -188 -232q-20 -143 -41 -263q-12 -70 -68 -194 q-47 -105 -151.5 -199t-212.5 -127q-86 -26 -137 -37q-94 -19 -166 -19q-111 0 -211 50q-135 68 -135 191zM433 563q46 -18 150 -18q411 0 616 327q54 86 54 165q0 134 -147 134q-21 0 -141 -29q-132 -32 -290 -190q-150 -150 -213 -296q-29 -67 -29 -83v-10z" />
<glyph unicode="H" horiz-adv-x="1453" d="M13 84q0 61 36 106q38 49 98 49q39 0 66.5 -22.5t27.5 -60.5q0 -63 -59 -63q-52 0 -52 60q0 35 -17 35q-66 0 -66 -100q0 -84 63 -129q56 -40 143 -40q197 0 329 200q72 109 172 388q-89 -30 -136 -65q-17 -13 -60 -46v15q0 23 48 59q39 30 70 42.5t93 35.5q17 46 65 160 q32 68 114 244v4q-33 -21 -100 -62q-60 -36 -105 -36q-101 0 -101 114q0 25 8.5 74.5t8.5 72.5q0 56 -45 56q-91 0 -181 -109q-81 -98 -88 -179q-3 -35 -3 -54q-23 9 -23 44q0 23 16 72q32 98 112 173q88 83 184 83q120 0 120 -121q0 -16 -2.5 -47t-2.5 -46q0 -54 65 -54 q42 0 94 32q28 14 85 50q16 25 59 87q75 103 124 103q34 0 34 -34q0 -52 -75 -100l-108 -62q-10 -18 -34 -85q-29 -80 -94 -350q11 0 19 1q102 13 271 41q8 20 29 74q14 36 31 68q66 127 132 222q51 73 142 153q109 96 177 96q82 0 82 -87q0 -130 -158 -303 q-148 -161 -296 -221q-7 -2 -34 -18q-6 -12 -44 -176q-50 -214 -50 -303q0 -148 85 -148q52 0 103 72q41 58 51 105q4 -1 8 -4q1 -5 1 -20q0 -44 -36 -96.5t-77 -75.5q-27 -15 -69 -15q-89 0 -134 100q-31 69 -31 149q0 117 68 366l6 22q-8 -1 -16 -1q-86 0 -269 -41 q-12 -42 -35 -104q-82 -222 -219 -368q-169 -181 -372 -181q-93 0 -162 44q-86 55 -86 155zM1307 649q115 37 271 201q167 175 167 289q0 63 -55 63q-93 0 -237 -222q-39 -60 -66 -124q-13 -34 -41 -101q-22 -53 -39 -106z" />
<glyph unicode="I" horiz-adv-x="1149" d="M22 55q0 62 45.5 113.5t106.5 51.5q38 0 70.5 -26t32.5 -63q0 -74 -66 -74q-54 0 -55 49q1 4 8 31q1 6 1 10q0 11 -9 15h-7q-38 0 -62 -32q-24 -31 -24 -75q0 -84 81 -133q65 -39 139 -39q164 0 309 118q128 103 207 265q-2 0 -14 7q-117 36 -186 145q-66 102 -66 229 q0 186 143 343q129 141 317 205q103 35 220 35q156 0 156 -29q0 -9 -29 -29q-45 -31 -47 -32q-70 -58 -94 -111q-68 -150 -92 -231q-26 -92 -100 -321q-19 -47 -66 -167q2 0 6 -1t6 -1q27 0 87 44t77 71q43 68 49 123q16 -14 16 -32q0 -88 -92 -163q-78 -62 -175 -86 q-10 -22 -40 -75q-18 -30 -96 -118q-111 -126 -261 -183q-120 -46 -207 -46q-98 0 -182 47q-107 60 -107 165zM614 565q0 -219 197 -265q12 30 101 286t193 403q27 39 68 82q105 112 108 112q0 22 -52 22q-170 0 -318 -102q-139 -97 -218 -253.5t-79 -284.5z" />
<glyph unicode="J" horiz-adv-x="1088" d="M-42 -419q0 130 91 273q100 158 294 244q164 73 329 73q11 0 33.5 -1.5t34.5 -1.5q5 0 26 -3q3 4 7 12q21 42 71 150q72 162 164 350q16 35 63 123q48 84 109 160q33 42 142 138l33 23q15 11 15 26q0 30 -110 30q-91 0 -165 -27q-186 -68 -322 -255q-132 -181 -132 -346 q0 -117 68 -163q27 -18 53 -18q53 0 54 44q13 -4 13 -16q0 -55 -74 -55q-100 0 -147 117q-31 77 -31 172q0 220 151 375q140 144 364 189q74 15 169 15q55 0 192 -22q6 -3 15 -10q1 -23 -15 -31q-137 -70 -222 -232q-21 -39 -50 -102q-34 -88 -189 -477q-25 -55 -89 -198 q147 -81 147 -185q0 -50 -35 -83h-13q14 25 14 57q0 58 -38.5 108.5t-93.5 61.5q-20 -32 -34 -63q-97 -216 -300 -413q-233 -225 -424 -225q-168 0 -168 186zM5 -450q0 -110 99 -110q169 0 397 283q182 226 250 402q-16 9 -82 9q-400 0 -608 -382q-56 -103 -56 -202z" />
<glyph unicode="K" horiz-adv-x="1421" d="M8 109q0 61 38 110q42 53 101 53q38 0 67 -21q32 -24 32 -60q0 -30 -19.5 -54t-48.5 -24q-41 0 -53 31q1 19 1 55q-9 12 -21 12q-26 0 -44 -37q-16 -32 -16 -61q0 -87 78 -134q61 -37 138 -37q80 0 176 57q132 79 222 262q19 48 110 276q9 24 27 71q11 25 37 92 q63 163 121 261l-5 5q-26 -18 -80.5 -51.5t-113.5 -33.5q-100 0 -100 103q0 23 6 69t6 69q0 66 -54 66q-53 0 -109 -42q-145 -108 -145 -244q0 -21 5 -39q0 -6 -3 -12h-12q-18 23 -18 68q0 115 103 215.5t219 100.5q107 0 114 -97q2 -22 2 -42t-2 -37q-4 -42 -4 -30 q0 -76 66 -76q40 0 135 58q29 18 50 47q116 164 176 164q29 0 29 -33q0 -38 -69 -96q-54 -45 -99 -66q-11 -5 -24 -36q-8 -19 -27 -68q-43 -125 -68 -234q-10 -37 -35 -133q-61 -250 -218 -434q-186 -217 -418 -217q-96 0 -167 46q-86 56 -86 158zM916 560q0 42 75 42 q28 0 62 -14l34 -15q23 5 58 35q64 55 109 135q25 48 78 144q79 136 191 234q123 107 232 107q67 0 66 -50q-8 -7 -8 -11q-24 28 -62 28q-50 0 -118 -46q-61 -42 -108 -116q-19 -31 -66 -113q-32 -58 -123 -205q-74 -113 -219 -171q25 -28 48 -86.5t23 -94.5v-225 q0 -141 87 -141q43 0 87 42.5t49 86.5q1 1 3.5 5t3.5 5q9 -21 9 -30q0 -14 -13 -43q-21 -48 -77.5 -84.5t-108.5 -36.5q-69 0 -114 49t-45 118q0 52 19 157.5t19 157.5q0 87 -29 106q-13 0 -39 -4.5t-39 -4.5q-84 0 -84 39z" />
<glyph unicode="L" horiz-adv-x="1314" d="M65 1q0 33 67 33l364 -42q126 0 237 228q88 181 88 208q0 8 -6 14h-118q-145 0 -312 88q-211 111 -211 283q0 153 164 242q130 71 275 71q172 0 207 -92q-50 54 -192 54q-136 0 -258 -63q-158 -82 -158 -229q0 -95 109 -174q145 -105 418 -105q42 0 109 7q33 79 100 235 q93 211 275 375q145 131 257 131q116 0 116 -128q0 -176 -235 -405q-211 -206 -411 -280q-10 -19 -46 -104q-94 -223 -291 -367q74 -36 325 -36q102 0 187 29q141 48 141 160q0 63 -53 63q-21 0 -25 -3q10 27 47 27q65 0 65 -90q0 -145 -168 -205q-104 -37 -200 -37 q-17 0 -35 1l-411 28q14 0 14 -1q0 -3 -70 -13q-100 -14 -133 -14q-62 0 -123 16q-109 29 -109 95zM989 555q161 13 365.5 220.5t204.5 367.5q0 88 -87 88q-170 0 -335 -302q-122 -224 -148 -374z" />
<glyph unicode="M" horiz-adv-x="1825" d="M8 120q0 67 40.5 117.5t106.5 50.5q92 0 92 -85q0 -75 -65 -75q-18 0 -26 4q-28 14 -28 41q0 9 4.5 28.5t3.5 29.5q-9 13 -20 13q-37 0 -60 -54q-17 -40 -17 -74t18 -67q58 -108 201 -108q135 0 289 142q123 114 214 320q100 227 133 438q7 41 25 145q-26 72 -26 127 q0 12 11 65q51 106 90 106h14q-16 -28 -16 -61q0 -57 58 -280q103 -394 135 -628q8 -2 16 16q102 222 225 402q71 105 165 211q39 44 139 125q21 13 59 40q9 9 41 61q13 21 49 47.5t57 26.5q18 0 18 -21q0 -31 -68 -82l-81 -60q-6 -8 -36 -78q-54 -125 -102 -299 q-80 -290 -80 -484q0 -256 105 -256q39 0 81 43q38 38 51 79h8v-13q0 -11 -6 -19q-17 -55 -68 -96q-53 -44 -108 -44q-155 0 -155 260q0 386 238 847l-5 5q-183 -154 -346 -418q-135 -219 -192 -397q-1 -53 -6 -160q-2 -26 -20 -74q-26 -70 -60 -70q-38 0 -38 63 q0 50 36 138t36 102q0 77 -59 304q-46 176 -75 255q-25 67 -58 135q-1 -5 -5 -13q-53 -322 -162 -559q-140 -305 -343 -385q-101 -40 -174 -40q-94 0 -168 51q-86 59 -86 162zM1100 -28q0 -17 5 -24h15q28 36 28 109q0 49 -3 61q-13 -20 -29 -71t-16 -75z" />
<glyph unicode="N" horiz-adv-x="1553" d="M7 -23q0 37 75 37q24 -2 141 -13l141 -14q44 0 111 63q62 58 89 109q16 33 60 116q75 138 130.5 357t55.5 377q0 55 -1 61q-17 24 -29 44q-28 47 -28 94q0 36 24 75q27 43 61 43q-10 -15 -10 -30q0 -46 135 -252q169 -258 268 -517q25 -66 43 -137q22 -89 29 -111 q3 3 7 9q25 144 88 388q46 176 129 313q50 82 125 155q90 87 153 99q4 0 14.5 4.5t15.5 4.5q44 0 44 -42q0 -24 -25.5 -50.5t-49.5 -26.5l-19 12q-20 12 -32 12q-98 0 -224 -247q-55 -108 -88 -235q-102 -393 -102 -585q2 -12 8 -40q3 -12 3 -29q0 -26 -7 -62 q-13 -71 -44 -71q-40 0 -43 102v15q0 30 3 57q-5 43 -27 123q-57 214 -154 430q-107 243 -225 396l-4 -5q0 -85 -5 -130q-72 -654 -370 -888l9 -7l54 -3l38 -1q203 0 203 80q0 6 -1 13q0 5 5 15q15 -20 15 -42q0 -114 -263 -114q-12 0 -62 3l-62 4q-10 -2 -48 -13 q-44 -13 -76 -20q-54 -12 -126 -12q-53 0 -95 18q-57 23 -57 68z" />
<glyph unicode="O" horiz-adv-x="1050" d="M62 408q0 162 55 307q81 215 311 379q218 156 406 156q48 0 88 -18q52 -23 52 -65q0 1 -5 -12q-28 67 -140 67q-95 0 -226 -71q-156 -84 -285 -298q-37 -61 -101 -231q-73 -194 -73 -360q0 -137 55 -231q71 -121 217 -121q223 0 402 298q119 198 157 394q26 133 26 208 q0 101 -29 175q-40 102 -126 102q-67 0 -122 -41q-111 -82 -175 -247q-45 -116 -45 -239q0 -66 18 -145q26 -114 90 -134q6 -2 23 -6q2 -4 2 -7q-6 -5 -29 -11q-4 -1 -27.5 11t-27.5 17q-83 96 -83 275q0 273 187 470q109 115 215 115q100 0 147 -100q33 -71 33 -167 q0 -316 -175 -634q-199 -361 -465 -361q-192 0 -284 198q-66 142 -66 327z" />
<glyph unicode="P" horiz-adv-x="1332" d="M20 91q0 57 35 106q42 58 106 58q38 0 66 -25t28 -63q0 -27 -17 -51t-43 -24q-54 0 -54 56q0 5 6 23t7 25q-12 12 -25 12q-38 0 -61 -39q-20 -33 -20 -73q0 -89 74 -138q59 -39 140 -39q244 0 409 302q66 121 121 295q21 74 67 221q100 297 282 455q-27 32 -147 32 q-62 0 -103 -3q-212 -15 -382 -160q-184 -155 -184 -360q0 -164 154 -164q118 0 200 119q74 107 74 227q0 20 -3 38q27 -8 27 -60q0 -117 -79 -227q-89 -124 -214 -124q-105 0 -165 79q-52 68 -52 164q0 259 245 396q189 106 430 106q109 0 171 -16q21 -6 64 -19l54 33 q50 29 88 29q39 0 42 -21q-87 0 -149 -53q264 -134 264 -329q0 -157 -150 -283q-139 -116 -282 -116q-38 0 -70 14q-42 18 -42 50q0 14 10 14q3 0 11.5 -18t14.5 -22q21 -15 69 -15q147 0 253 163q89 136 89 259q0 51 -22 110q-14 38 -73 86q-55 46 -97 60q-21 -11 -54 -53 q-83 -108 -129 -241q-25 -81 -76 -242q-27 -84 -100 -295q-70 -189 -239 -326q-164 -133 -324 -133q-91 0 -162 48q-83 56 -83 152z" />
<glyph unicode="Q" horiz-adv-x="1112" d="M17 -20q0 41 85 41q5 0 144 -12l142 -12q82 0 215 104q117 92 179 178q112 156 158 299q67 206 67 321q0 282 -248 282q-94 0 -188 -47q-198 -99 -302 -304q-88 -173 -88 -363q0 -296 226 -296q179 0 302 183q104 155 104 317q0 177 -127 177q-77 0 -122 -66 q-35 -51 -35 -116q0 -11 1 -22q-19 10 -19 44q0 71 54 132.5t124 61.5q78 0 122 -72q36 -59 36 -129q0 -38 -19 -125q-36 -163 -148 -285q-121 -131 -266 -131q-155 0 -232 134q-59 103 -59 250q0 332 266 547q25 20 116 70q130 71 247 71q164 0 256 -118q84 -107 84 -275 q0 -266 -184 -501q-166 -212 -425 -336q3 -2 6 -5q111 -14 205 -14q103 0 143 10q74 18 111 81q16 27 5 60v12q24 -14 24 -44q0 -63 -63 -111q-53 -39 -122 -51q-65 -11 -159 -11q-22 1 -128 8l-129 9q-23 0 -85.5 -17t-97.5 -17q-49 0 -105 21q-71 26 -71 67z" />
<glyph unicode="R" horiz-adv-x="1444" d="M15 38q0 64 36 113q39 55 101 55q91 0 91 -85q0 -71 -60 -71q-28 0 -45 21q-10 13 -7 38q4 36 5 34q-5 9 -16 9q-75 0 -75 -113q0 -80 59 -125q53 -41 135 -41q186 0 334 188q120 153 181 375q5 19 66 187q120 332 297 511q0 5 -3 6q-30 12 -57 17q-82 15 -151 15 q-179 0 -323 -95q-139 -93 -219 -258q-50 -103 -50 -186q0 -155 145 -155q113 0 195 115q72 101 72 203q0 57 -31 82q5 5 12 5q46 0 46 -94q0 -115 -85 -225q-93 -120 -216 -120q-42 0 -92 30.5t-75 66.5q-36 53 -36 148q0 62 37 179q22 68 87 140q62 69 129 104 q178 94 382 94q56 0 168 -18q99 -16 99 -19h-2q1 0 50 29t63 29h31q7 -8 7 -13q-58 -12 -98 -54q0 -6 6 -11q100 -44 171 -130q78 -95 78 -196q0 -4 -3 -14.5t-3 -15.5q0 -79 -102 -178q-96 -93 -182 -114q-11 -3 -30 -14q20 -24 53 -92q8 -43 16 -79q6 -26 6 -53 q0 -10 -1 -20q-4 -47 -6 -62v-106q0 -10 8 -44q20 -87 86 -87q48 0 92 53q42 50 44 99l5 5q10 -11 10 -24q0 -18 -13 -47q-62 -137 -179 -137q-25 0 -55 12q-103 42 -103 184q2 23 14 139l13 140q0 110 -41 110q-15 0 -46.5 -6.5t-46.5 -6.5q-63 0 -63 40q0 41 81 41 q26 0 47 -4q5 -2 29 -15q21 -11 25 -11q23 0 60 25q163 109 163 339q0 148 -125 225q-32 20 -40 20q-14 0 -44 -41q-68 -93 -134 -261q-13 -33 -103 -314q-62 -194 -132 -316q-83 -145 -215 -242q-148 -109 -299 -109q-88 0 -153 47q-75 54 -75 149z" />
<glyph unicode="S" horiz-adv-x="1089" d="M34 143q0 102 60 173q64 75 164 75q120 0 120 -97q0 -70 -69 -70q-44 0 -56 43q0 17 -5 43q-12 17 -42 17q-64 0 -103 -61q-35 -53 -35 -120q0 -103 82 -163q73 -54 180 -54q233 0 395 237q75 110 120 268q13 44 42 153q-31 -12 -102 -35q-79 -23 -182 -23 q-307 0 -307 225q0 165 173 284q150 103 306 103q87 0 116 -41q-65 6 -86 6q-214 0 -353 -122q-117 -103 -121 -228v-7q0 -91 72 -137q64 -40 165 -40q131 0 283 58q20 7 42 17q10 8 20 42q1 5 49 130q60 155 223 305q118 108 207 108q68 0 68 -77q0 -112 -149 -275 q-129 -141 -250 -207q-6 -4 -19 -15q-12 -23 -31 -95q-6 -21 -34 -109q-36 -113 -95 -215q-86 -149 -231 -246q-155 -105 -317 -105q-123 0 -207 65q-93 71 -93 190zM1058 724l13 4q104 55 201 153q106 106 143 206q18 48 18 73q0 44 -40 44q-92 0 -193 -131 q-48 -62 -81 -136q-13 -29 -29 -79q-33 -104 -32 -134z" />
<glyph unicode="T" horiz-adv-x="1146" d="M27 39q0 64 41.5 116.5t103.5 52.5q103 0 103 -86q0 -71 -63 -71q-52 0 -52 46q0 5 4 25q3 16 1 25q-5 9 -22 9q-38 0 -58 -40q-17 -33 -17 -74q0 -89 80 -134q61 -34 137 -34q214 0 374 190q125 148 199 387q151 483 305 635q0 -6 3 7q-188 32 -304 32q-102 0 -177 -18 q-49 -12 -129 -46q-102 -44 -184 -153q-87 -115 -87 -221q0 -75 47.5 -117.5t122.5 -42.5q119 0 208 100q83 94 93 216q16 -30 16 -51q0 -26 -20 -83q-34 -98 -129 -160q-85 -56 -169 -56q-88 0 -143.5 54.5t-55.5 142.5q0 110 63 214q93 154 276 236q152 68 312 68 q-11 0 58 -3q81 -4 160 -12q17 -3 67 -10q40 -6 49 -6q1 0 10 -2q17 13 67 45q70 42 127 42q26 0 39 -12q-9 -8 -31 -8h-2q-13 0 -20 -2l-23 -6q-82 -32 -113 -70q7 0 18 -3q142 -22 217 -22q82 0 162 22q38 11 70 53q7 15 23 43q10 5 13 5q16 0 16 -22q0 -55 -91 -98 q-58 -27 -111 -38q-131 -26 -254 -26q-12 0 -59 4l-60 3h-16q-22 -15 -71 -121q-24 -52 -60 -180q-44 -156 -55 -188q-93 -269 -129 -340q-100 -197 -279 -315q-159 -105 -317 -105q-172 0 -245 98q-39 52 -39 105z" />
<glyph unicode="U" horiz-adv-x="1367" d="M18 781q0 198 155.5 349t354.5 151q255 0 255 -238q0 -133 -122.5 -449t-122.5 -437q0 -70 34 -114q38 -48 106 -48q102 0 223 147q91 110 140 226q6 41 22 143q9 52 41 163q23 81 85 230q91 220 133 220q26 0 26 -52q0 -136 -214 -603q-14 -30 -14 -200q0 -253 102 -253 q83 0 134 122q5 -5 5 -12q0 -56 -61.5 -110.5t-118.5 -54.5q-141 0 -149 219l-3 84q-110 -149 -162 -201q-103 -102 -194 -102q-114 0 -165 110q-34 74 -34 181q0 166 67 320q43 88 127 265q68 144 68 253q0 153 -164 153q-181 0 -342 -167.5t-161 -348.5q0 -64 43 -114 q45 -53 108 -53q100 0 186 118q81 111 81 213q0 29 -9 51q33 -5 33 -74q0 -110 -85 -219q-93 -120 -212 -120q-101 0 -154 86q-42 69 -42 166zM1154 597q15 12 76 166q67 170 67 242q0 12 -9 21q-55 -66 -106 -267q-30 -118 -28 -140v-22z" />
<glyph unicode="V" horiz-adv-x="1065" d="M34 928q0 110 98 213.5t208 103.5q80 0 98 -65q3 -40 12 -119q8 -65 71 -65q44 0 75 21q5 4 28 37q97 143 148 143q21 0 21 -20q0 -76 -129 -165q-12 -7 -39 -24q-18 -11 -31 -82q-18 -95 -19 -163q-4 -351 -15 -424q-31 -210 -166 -379h3q38 0 118 21q104 27 214 149 q104 116 148 222q46 120 173 427q75 172 203 304q107 110 196 110q43 0 55 -42l-5 -16q-18 12 -40 12q-85 0 -210 -163q-85 -111 -129 -205q-60 -132 -183 -394q-118 -242 -240 -349q-65 -57 -137 -89q-106 -47 -186 -47q-54 0 -54 21q0 11 30 44q14 14 40 44q57 72 69 307 q8 171 16 343q26 173 104 322l3 12q-2 -1 -9 -3q-89 -28 -117 -28q-103 0 -103 137v28q0 93 -52 93q-9 0 -40 -12q-86 -33 -142 -109q-59 -78 -59 -168q0 -10 2 -31t2 -31q-30 9 -30 79z" />
<glyph unicode="W" horiz-adv-x="1634" d="M42 699q0 195 149.5 341.5t344.5 146.5q282 0 282 -391q0 -149 -50 -317l-89 -296q227 318 375 473l-1 100v5q0 75 28 165q36 115 102 172q41 35 80 35q79 0 79 -116q0 -108 -84 -215q-15 -20 -115 -133q0 -31 4 -90q4 -62 4 -91l4 -384q156 248 307 423q164 190 214 260 q121 169 121 281q0 49 -27.5 82.5t-75.5 33.5q-50 0 -89 -38t-39 -88q0 -33 41 -48q4 -28 -10 -50q-15 -25 -43 -25q-53 0 -53 73q0 82 60.5 144t142.5 62q75 0 116 -58q35 -51 35 -130q0 -141 -84 -259q-49 -70 -203 -215q-160 -151 -248 -265q-51 -66 -116 -164 q-17 -25 -45 -88q-5 -37 -17 -109q-17 -93 -55 -93q-28 0 -28 48q0 58 60 168q0 83 -54 545q-262 -277 -414 -503q-2 -5 -18 -86q-22 -111 -69 -111q-25 0 -25 36q0 71 91 198q28 83 62 265q41 219 41 355q0 391 -252 391q-165 0 -292 -155q-116 -142 -116 -290 q0 -71 39 -119q43 -51 112 -51q87 0 155 81q64 77 64 166q0 15 -2 30q30 -8 30 -61q0 -88 -79.5 -165.5t-167.5 -77.5q-86 0 -136 59q-46 56 -46 143zM1138 828q0 -41 1 -70q49 49 96 139q52 98 52 157q0 52 -34 52q-60 0 -92 -113q-23 -82 -23 -165z" />
<glyph unicode="X" horiz-adv-x="1212" d="M32 101q0 67 41 116t107 49q93 0 93 -82q0 -28 -20.5 -51.5t-47.5 -23.5q-20 0 -37 14.5t-17 33.5q0 -17 13 53q-14 12 -23 12q-37 0 -58 -44q-17 -36 -17 -77q0 -84 74 -136q62 -43 137 -43q141 0 286 135q122 114 192 262q77 162 108 270q39 136 39 287q0 301 -229 301 q-165 0 -294.5 -135.5t-129.5 -301.5q0 -171 147 -171q90 0 162 84q66 76 77 170q12 -6 12 -37q0 -90 -80 -167.5t-170 -77.5q-80 0 -133 62q-49 59 -49 141q0 187 148.5 334t336.5 147q298 0 298 -393q0 -93 1 -100q32 75 168 250q177 226 281 226q53 0 53 -37 q0 -11 -14.5 -34.5t-24.5 -23.5q-5 0 -24.5 10t-23.5 10q-80 0 -194 -134q-128 -151 -208 -393q-76 -230 -76 -440q0 -186 97 -186q56 0 110 61q48 54 63 113q9 -15 9 -26q0 -59 -69 -122.5t-128 -63.5q-140 0 -140 288q0 19 1.5 58t1.5 58q0 15 -1 22q-281 -477 -593 -477 q-99 0 -173 55q-82 60 -82 155z" />
<glyph unicode="Y" horiz-adv-x="1339" d="M20 701q0 201 160 352t362 151q129 0 202 -63q78 -66 78 -193q0 -126 -115.5 -385t-115.5 -386q0 -69 34 -115q39 -51 106 -51q116 0 244 127q115 114 173 257q9 49 28 148q43 209 121 209q25 0 25 -32q0 -20 -60 -160q-63 -147 -66 -161q-17 -80 -32 -234 q-17 -179 -33 -266q-41 -227 -257 -380q-194 -138 -402 -138q-100 0 -173 43q-92 54 -92 161q0 60 32 101q35 45 94 45q37 0 66 -23.5t29 -59.5q0 -63 -60 -63q-53 0 -53 56q0 17 7 37q-5 6 -13 6q-68 0 -68 -94q0 -88 68 -135q59 -40 151 -40q245 0 436 233 q154 187 210 452q40 189 40 212q0 6 -2 8q-212 -334 -415 -334q-106 0 -163 76q-52 68 -52 177q0 140 128.5 397t128.5 354q0 83 -54.5 131.5t-138.5 48.5q-180 0 -347 -165t-167 -345q0 -68 47 -109.5t116 -41.5q112 0 197 105q81 100 81 214q0 11 -1 23q16 -22 16 -60 q0 -109 -91 -208t-199 -99q-95 0 -152.5 60.5t-57.5 156.5z" />
<glyph unicode="Z" horiz-adv-x="1000" d="M30 723q0 117 67 227q158 259 465 259q154 0 328 -104q44 -26 111 -50q61 -21 96 -21q11 0 20 2q19 24 58.5 68t72.5 44q34 0 34 -32q0 -69 -148 -116q-47 -77 -157.5 -247.5t-275.5 -275.5q2 -3 46 -58q26 -32 36 -68q2 -16 21 -46q7 -1 24 -5q158 -40 158 -155 q0 -60 -43 -79q-15 0 -28 4q45 50 45 73q0 37 -40 73q-34 31 -75 45q-33 11 -42 10l2 -93v-6q0 -89 -57 -210q-82 -174 -220 -296q-163 -144 -332 -144q-146 0 -146 150q0 164 152 347q141 170 305 235q78 31 123 41q24 4 87 16q1 106 -50 143q-16 -8 -33 -16 q-42 -18 -84 -18q-23 0 -58 14q-41 16 -41 35q0 51 106 53q39 1 56 -5q7 -1 30 -10t28 -9q8 3 43 26q136 87 267 290q55 85 104 173q-26 1 -91 7q-80 8 -264 85q-166 69 -258 69q-177 0 -300 -146q-111 -132 -111 -281q0 -178 161 -178q-4 0 30 5q44 6 78 26 q66 38 116 121.5t50 158.5q0 34 -10 73q36 -17 36 -90q0 -112 -92 -214q-95 -106 -205 -106q-91 0 -143 57.5t-52 148.5zM81 -344q0 -97 103 -97q101 0 223 96q108 85 165 184q96 167 125 290q19 82 19 120q0 17 -3 25q-74 0 -182 -46q-81 -34 -140 -78q-145 -107 -240 -292 q-70 -137 -70 -202zM1158 1040h2q22 0 56 24q35 24 34 42q0 11 -9 11q-3 0 -6 -1q-46 -13 -77 -76z" />
<glyph unicode="[" d="M104 -275l469 1625h264l-8 -27h-172l-450 -1571h172l-6 -27h-269z" />
<glyph unicode="\" horiz-adv-x="924" d="M-29 1360q14 -6 40 -23q18 -12 44 -12q21 0 31 7q229 -388 944 -1381q-58 47 -91 47q-5 0 -14 -1.5t-14 -1.5q-445 701 -940 1365z" />
<glyph unicode="]" d="M-46 -275l8 27h173l451 1571h-172l6 27h268l-469 -1625h-265z" />
<glyph unicode="^" horiz-adv-x="909" d="M151 423l268 605h71l268 -605h-74l-233 526l-225 -526h-75z" />
<glyph unicode="_" horiz-adv-x="1024" d="M0 -190h1024v-52h-1024v52z" />
<glyph unicode="`" horiz-adv-x="300" d="M36 882q0 44 39 44q22 0 69 -51q26 -27 121 -124l-18 -17l-157 91q-54 31 -54 57z" />
<glyph unicode="a" horiz-adv-x="628" d="M54 216q0 228 187 381q80 66 150 66q73 0 117 -91q10 23 34 67h89q5 -3 5 -11q-4 -14 -36 -110q-139 -415 -139 -439v-15q0 -37 34 -37q43 0 111 122h26q-71 -153 -156 -153q-53 0 -79 41q-12 19 -31 89q-58 -70 -73 -84q-46 -42 -99 -42q-140 0 -140 216zM153 114 q0 -83 56 -83q72 0 152 145q58 105 90 216q22 77 22 124q0 117 -68 117q-77 0 -156 -166q-59 -123 -84 -243q-12 -57 -12 -110z" />
<glyph unicode="b" horiz-adv-x="597" d="M72 187q0 184 126 464q110 246 241 417q111 146 174 146q61 0 61 -86q0 -149 -124 -302q-103 -128 -253 -217q-10 -30 -66 -196q-67 -199 -67 -289t61 -90q102 0 193 155q76 129 84 228q-11 15 -31 48.5t-20 88.5q0 89 39 89q25 0 41 -34q14 -28 14 -56q0 -43 -2 -97 q12 -14 26 -14q63 0 63 99q0 27 11 27q17 0 17 -42q-1 -118 -96 -118h-19q-15 0 -16 -15q-6 -93 -96 -230q-107 -163 -220 -163q-74 0 -113 71q-28 51 -28 116zM314 657q110 40 221 198.5t111 275.5q0 58 -34 58q-89 0 -298 -532z" />
<glyph unicode="c" horiz-adv-x="525" d="M57 210q0 114 65 231t162 177q69 43 131 43q50 0 81 -36t31 -87q0 -37 -20 -75q-25 -47 -62 -47q-41 0 -41 44q0 40 32 63q14 10 44 12q9 15 9 24q0 29 -22 49t-51 20q-148 0 -242 -384q-15 -61 -15 -104q0 -116 82 -116q58 0 117 67l78 93h16v-15q0 -6 -27 -42 q-96 -130 -194 -130q-82 0 -132 73q-42 62 -42 140z" />
<glyph unicode="d" horiz-adv-x="668" d="M61 206q0 246 198 394q84 63 149 63q77 0 118 -104l216 608h94q0 -1 1 -1q3 -4 3 -11q0 20 -360 -1042q-7 -21 -7 -45q0 -41 31 -41q35 0 113 119h26v-12q-4 -6 -20 -31q-71 -113 -135 -113q-49 0 -79 51q-27 45 -26 96q-10 -4 -30 -33q-25 -36 -35 -45q-67 -59 -117 -59 q-75 0 -113 82q-27 59 -27 124zM160 119q0 -83 56 -83q81 0 182 192q95 181 95 291q0 114 -68 114q-72 0 -151 -144q-59 -107 -88 -218q-4 -15 -12 -48q-14 -66 -14 -104z" />
<glyph unicode="e" horiz-adv-x="514" d="M57 208q0 144 105 292q113 160 252 160q110 0 110 -109q0 -157 -250 -235q-26 -8 -55 -15q-10 -1 -24.5 -7.5t-22.5 -44.5q-15 -67 -15 -108q0 -111 83 -111q77 0 186 153h23q-25 -66 -87 -122q-68 -62 -132 -62q-132 0 -169 179q-4 19 -4 30zM200 335q6 -1 13 -1 q9 0 18 2q54 10 112 55q62 47 78 96q18 54 18 86q0 56 -34 56q-91 0 -186 -236q-20 -49 -19 -58z" />
<glyph unicode="f" horiz-adv-x="493" d="M-447 -443q0 53 49 53q33 0 45 -34t64 -34q86 0 168 81q97 96 157 226q33 72 88 243q41 127 148 498h-136q-4 4 -4 10q0 27 22 27h122q8 3 14 19q57 167 165 297q131 157 268 157q109 0 109 -87q0 -28 -21.5 -50.5t-49.5 -22.5q-48 0 -48 44q0 18 12 30t12 16 q0 26 -37 26q-59 0 -127 -79t-144 -274q-7 -15 -19 -50l-6 -22h146q-1 0 10 -5v-18q-2 -6 -11 -15h-149q-8 -7 -16 -36q-83 -294 -176 -562q-67 -192 -228 -345t-325 -153q-102 0 -102 60z" />
<glyph unicode="g" horiz-adv-x="624" d="M-78 -494q0 150 131 287q110 116 268 182q10 4 42 117q13 46 13 43q-111 -137 -180 -137q-73 0 -109 81q-26 58 -26 124q0 248 226 391q57 36 106 36q74 0 110 -88q9 2 16 25q6 20 9 32h91q-23 -71 -81 -257q-25 -86 -94 -316q-143 -468 -322 -584q-66 -43 -112 -43 q-88 0 -88 107zM-44 -504q0 -70 49 -70q50 0 89 48q124 151 216 457q-110 -14 -232 -168t-122 -267zM157 117q0 -85 54 -85q79 0 174 184q88 171 88 277q0 109 -66 109q-89 0 -174 -191q-76 -171 -76 -294z" />
<glyph unicode="h" horiz-adv-x="644" d="M7 10q0 14 72 218q15 44 55 156.5t124 334.5q79 200 201 357q96 123 164 123q61 0 61 -92q0 -132 -122 -274q-101 -118 -238 -196q-6 -14 -55 -161l2 -12q126 160 204 160q41 0 69 -31t28 -73q0 -62 -75 -239.5t-75 -214.5q0 -38 34 -38q53 0 127 131q10 5 15 5 q4 -4 4 -10q0 -22 -46 -77q-42 -50 -67 -66q-20 -13 -52 -13q-90 0 -90 109q0 76 70 234t70 201q0 48 -38 48q-29 0 -62 -32q-119 -115 -182 -277q-28 -78 -103 -283h-90q-5 0 -5 12zM340 680q92 44 198 196q109 157 109 255q0 37 -31 37q-96 0 -251 -406q-21 -55 -25 -82z " />
<glyph unicode="i" horiz-adv-x="345" d="M62 117q0 73 73.5 242t73.5 219q0 36 -25 36q-20 0 -49 -34.5t-31 -34.5h-17q-4 1 -4 8q0 12 28 45.5t41 39.5q31 15 53 15q91 0 91 -106q0 -64 -75 -250t-75 -225q0 -38 32 -38q36 0 74 48q9 12 49 68h19q4 -1 4 -9q0 -6 -19 -38q-62 -103 -142 -103q-101 0 -101 117z M229 798q0 27 18 61q24 46 62 46q49 0 49 -56q0 -38 -23 -74q-26 -40 -62 -40q-44 0 -44 63z" />
<glyph unicode="j" horiz-adv-x="434" d="M-292 -473q0 154 121 294q110 127 264 186q14 5 39 23q7 9 94 260q91 263 91 302q0 30 -29 30q-23 0 -51.5 -37.5t-41.5 -36.5q-4 3 -7 3v11q-1 9 23 39q20 26 26 30q41 32 73 32q44 0 69 -38q23 -33 23 -79t-58 -225q-20 -56 -68 -197q-236 -709 -478 -709 q-90 0 -90 112zM-257 -482q0 -73 57 -73q83 0 199 242q77 161 110 274l7 24q-20 -11 -67 -35q-101 -47 -203 -191q-103 -147 -103 -241zM323 815q0 39 22 71q25 36 62 36q53 0 53 -58q0 -38 -23 -71q-26 -38 -62 -38q-52 0 -52 60z" />
<glyph unicode="k" horiz-adv-x="624" d="M17 -1v14q0 7 73 212l68 191q34 97 138 369q41 101 149 244q123 163 196 163q70 0 70 -83q0 -14 -19 -85q-28 -104 -129 -214q-89 -97 -196 -160q-15 -9 -33 -25q-40 -67 -49 -144q77 78 115 104q57 39 116 39q107 0 107 -100q0 -155 -272 -218q9 -9 22 -26 q14 -25 30 -99q12 -53 23 -106q13 -36 42 -36q35 0 64 56q11 24 34 73q8 0 16 -8q-55 -162 -153 -162q-75 0 -106 79q-14 58 -44 174q-8 29 -37 47q-1 12 11 15q41 11 92 16q61 6 115 61.5t54 116.5q0 68 -56 68q-89 0 -199 -185q-31 -53 -64 -146q-20 -56 -85 -241 q-40 -5 -47 -5h-21l-27 1h2zM346 678h7q114 72 183 165q138 185 138 283q0 40 -34 40q-65 0 -171 -205q-65 -125 -123 -283z" />
<glyph unicode="l" horiz-adv-x="400" d="M60 243q0 180 109 446q108 263 234 395q121 127 180 127q63 0 63 -85q0 -42 -22 -115q-37 -122 -137 -253q-113 -148 -237 -211q-12 -6 -25 -22q-69 -216 -69 -360q0 -131 81 -131q85 0 154 149h26q-22 -70 -67 -121q-55 -62 -119 -62q-55 0 -102.5 44.5t-56.5 99.5 q-12 76 -12 99zM237 578q5 1 104 79q62 49 160 219q104 181 104 263q0 39 -29 39q-75 0 -192 -233q-84 -167 -143 -345q-2 -6 -4 -22z" />
<glyph unicode="m" horiz-adv-x="967" d="M12 18q2 7 23 63q171 461 171 503q0 32 -22 32t-43 -26q-11 -15 -35 -45h-18q-4 4 -4 10q0 20 34 53q28 28 42 34q26 12 44 12q52 0 79 -56q9 -18 6 -57q-5 -68 -5 -57v-10h4q92 106 114 126q59 54 114 54q98 0 98 -126q0 -18 -3 -37q36 38 110 112q50 47 103 47 q97 0 97 -117q0 -79 -78.5 -253t-78.5 -206q0 -43 34 -43q38 0 81 54q35 44 49 85q6 7 15 7q7 0 15 -8q-22 -61 -67 -111q-55 -61 -110 -61q-99 0 -99 121q0 77 77 246t77 205q0 44 -34 44q-51 0 -123 -91q-92 -116 -148 -252l-104 -266h-101q-4 1 -4 8q71 188 193 518 q8 22 8 45q0 41 -33 41q-19 0 -47 -22q-141 -113 -239 -358q-34 -86 -84 -221q-4 -11 -23 -11q-66 3 -80 3q-5 5 -5 11z" />
<glyph unicode="n" horiz-adv-x="670" d="M9 6v11q0 20 98.5 265t98.5 292q0 34 -22 34q-34 0 -78 -71h-22v14q0 17 34 49.5t45 36.5q20 8 39 8q83 0 83 -112q0 6 -4 -72q149 188 236 188q101 0 101 -114q0 -68 -83.5 -249.5t-83.5 -216.5q0 -40 39 -40q44 0 89 66q17 28 53 84h15q5 -5 5 -12q0 -27 -50 -88 q-69 -84 -134 -84q-95 0 -95 121q0 73 78 239.5t78 206.5q0 47 -37 47q-48 0 -121 -89q-123 -149 -218 -408q-12 -28 -43 -105q-2 -5 -49 -5q-32 0 -52 4z" />
<glyph unicode="o" d="M57 216q0 142 104 287q113 157 250 157q123 0 128 -180v-8q0 -49 -11 -93l11 -5h6q41 0 60 36q14 25 14 61q0 9 -1 18q1 5 10 5q21 0 21 -45q0 -113 -125 -113h-2l-39 -92q-103 -244 -253 -244q-80 0 -129 70q-44 63 -44 146zM159 145q0 -114 83 -114q125 0 220 249 q21 55 24 65q-8 11 -25 35q-20 31 -20 73q0 69 51 88v5q0 27 -20 53q-22 28 -51 28q-93 0 -183 -199q-79 -174 -79 -283z" />
<glyph unicode="p" horiz-adv-x="632" d="M-147 -565q114 359 293 930q64 205 64 220q0 36 -26 36t-55 -40t-37 -41q-8 5 4 32q37 80 106 80h1q80 0 83 -110q0 -9 3 -21q94 137 169 137q71 0 108 -69q30 -56 30 -134q0 -170 -127 -333q-86 -110 -164 -110q-91 0 -117 118l-8 14l-236 -711h-35q-46 0 -56 2z M213 191q0 -141 72 -141q59 0 127 150q90 197 90 344q0 84 -54 84q-42 0 -100 -75q-44 -57 -69 -113q-66 -148 -66 -249z" />
<glyph unicode="q" horiz-adv-x="593" d="M59 234q0 245 225 398q43 29 93 29q66 0 109 -87q10 23 33 72h87v-11q-21 -66 -139 -436l-179 -568q-19 -65 -60 -183q-30 -5 -48 -5q-7 0 -37 12l216 697q-103 -131 -164 -131q-136 0 -136 213zM151 147q0 -95 54 -95q100 0 214 292q38 98 38 174q0 118 -69 118 q-35 0 -64 -30q-80 -82 -132 -245q-41 -126 -41 -214z" />
<glyph unicode="r" horiz-adv-x="569" d="M17 13l100 280q16 43 49 130q45 122 45 157q0 31 -26 31q-27 0 -52.5 -37.5t-33.5 -37.5q-9 0 -17 8q53 107 121 107q88 0 88 -135v-21q118 146 201 146q51 0 82.5 -33t31.5 -84t-39 -103q-42 -56 -96 -56q-63 0 -63 58q0 26 19.5 49t45.5 23q19 0 30 -17t18 -17 q44 0 44 73q0 30 -22 50t-53 20q-111 0 -236 -261q-44 -91 -77 -186l-53 -148q-5 -8 -36 -8q-11 0 -33.5 2t-33.5 2q-4 1 -4 8z" />
<glyph unicode="s" horiz-adv-x="503" d="M17 153q0 36 24 75q26 44 60 44h28v-13q-50 -48 -50 -108q0 -121 124 -121q57 0 102.5 37t45.5 93q0 39 -98.5 129.5t-98.5 169.5q0 84 75 139q65 48 139 48q63 0 106 -34q47 -38 47 -99q0 -43 -26 -74q-27 -34 -69 -34q-68 0 -68 64q0 22 16 40t38 18q19 0 27 -17 t21 -17q20 0 20 34q-1 85 -110 85q-54 0 -92 -27q-43 -31 -43 -83q0 -55 100.5 -142.5t100.5 -150.5q0 -25 -13 -58q-59 -151 -218 -151q-75 0 -128 38q-60 43 -60 115z" />
<glyph unicode="t" horiz-adv-x="408" d="M73 119q0 78 174 549h-130q6 12 14 33h126l113 316h104l-112 -316h126q-7 -23 -15 -34h-119l-122 -344q-74 -210 -74 -241q0 -51 42 -51q69 0 142 149h20q3 -9 0 -15q-5 -9 -16 -31q-65 -134 -164 -134q-109 0 -109 119z" />
<glyph unicode="u" horiz-adv-x="644" d="M75 540q10 39 48 75.5t76 36.5q90 0 90 -124q0 -67 -64 -217t-64 -215q0 -61 48 -61q40 0 89 60q33 41 56.5 90t78.5 180q35 98 102 278q13 6 52 6q32 0 51 -4q-23 -74 -159 -464q-27 -78 -27 -107q0 -38 32 -38q31 0 70 53q10 14 49 69h22v-15q-1 -1 -21 -38 q-58 -106 -137 -106q-82 0 -109 131q-54 -72 -67 -85q-40 -39 -86 -39q-68 0 -102 60q-25 44 -25 99q0 66 61 211.5t61 192.5q0 42 -23 42q-33 0 -76 -71h-26z" />
<glyph unicode="v" horiz-adv-x="632" d="M50 527q44 108 119 108q44 0 69 -46q19 -35 19 -71q0 -62 -44.5 -189t-44.5 -192q0 -101 74 -101q87 0 168 168q67 138 67 204l-28 46q-22 35 -22 82q0 85 44 85q43 0 47 -108q1 -13 1 -26q0 -25 -3 -47q8 -23 39 -23q69 0 91 90q3 2 7 6q9 -9 9 -16q0 -40 -35.5 -73.5 t-76.5 -33.5q-13 0 -42 10q-7 -22 -14 -55q-22 -104 -86 -209q-82 -136 -171 -136q-75 0 -116 59q-37 52 -37 130q0 70 45.5 195.5t45.5 173.5q0 40 -30 40q-31 0 -76 -75q-4 0 -11 2t-8 2z" />
<glyph unicode="w" horiz-adv-x="924" d="M68 165q0 67 61 207t61 184t-25 44q-23 0 -74 -67h-19v11q0 16 33 50t49 39q24 8 35 8q41 0 65 -39q21 -33 21 -76q0 -64 -64.5 -215t-64.5 -212q0 -60 48 -60q81 0 152 159q18 47 63 163q64 160 103 268q11 5 46 5q30 0 51 -4q-2 -9 -10 -35q-27 -82 -73 -208 q-71 -195 -71 -251q0 -100 76 -100q85 0 171 163q71 134 78 210q-32 40 -37 52q-12 25 -12 68q0 24 10 54q14 41 35 41q34 0 43 -66v-25q0 -41 2 -101q1 -19 40 -19q71 0 95 95q14 3 14 -13q0 -31 -29.5 -66t-60.5 -42q-5 -1 -24 -1q-20 0 -43 6q-2 -4 -6 -15 q-14 -84 -86 -211q-95 -168 -199 -168q-122 0 -156 179q-14 -22 -51 -79q-61 -89 -127 -89q-59 0 -92 51q-28 43 -28 105z" />
<glyph unicode="x" horiz-adv-x="605" d="M60 -3q0 149 197 378q11 103 11 134q0 103 -39 103q-34 0 -98 -81l-18 -3q-10 3 -8 11q7 34 53 70.5t81 36.5q78 0 117 -150q140 150 211 150q89 0 89 -103q0 -54 -29 -94q-33 -44 -85 -44q-60 0 -60 56q0 22 17 40.5t39 18.5q23 0 28.5 -18.5t14.5 -18.5q37 0 37 60 q0 64 -57 64q-46 0 -117 -64q-66 -60 -86 -108q-19 -118 -19 -267q0 -58 4 -76q11 -51 56 -51q69 0 132 136h18q5 -5 5 -10q0 -4 -17 -40q-60 -127 -160 -127q-127 0 -127 211v10q0 8 1 28v22l1 45q-147 -165 -147 -328q0 -72 29 -121q35 -58 103 -58q63 0 76 65 q16 -10 16 -31q-1 -68 -87 -68q-88 0 -140 80q-42 65 -42 142z" />
<glyph unicode="y" horiz-adv-x="597" d="M-111 -487q0 150 133 293q114 121 270 189q10 4 20.5 39t29.5 95l7 25q-96 -129 -154 -129q-60 0 -93 49q-29 43 -29 106q0 64 61 209.5t61 193.5q0 41 -25 41q-23 0 -74 -68h-23q11 36 47.5 70.5t71.5 34.5q84 0 84 -115q0 -69 -63.5 -224t-63.5 -210q0 -63 48 -63 q36 0 74 47q107 131 191 380q24 70 67 180q11 5 49 5q28 0 49 -4q-33 -90 -89 -253l-68 -197q-30 -82 -100 -290q-57 -178 -145 -317q-126 -200 -249 -200q-87 0 -87 113zM-77 -500q0 -70 55 -70q121 0 259 392q40 113 40 109l8 27l-20 -8q-101 -41 -189 -142 q-82 -95 -125 -192q-28 -63 -28 -116z" />
<glyph unicode="z" horiz-adv-x="585" d="M34 61q0 68 60 152q52 73 117 117q26 18 160 89q96 51 141 109q-16 -10 -40 -12q-13 -2 -18 -2q-32 0 -94 18.5t-93 18.5q-38 0 -62 -18q-17 -13 -60 -66h-13v17q0 19 57 92q63 81 117 81q46 0 108 -53t69 -53q11 0 22 13q7 9 3.5 36.5t2.5 35.5q13 17 28 17q32 0 32 -42 q0 -13 -20 -62q-50 -123 -201 -221q-73 -44 -218 -132q-31 -19 -44 -46l12 -4q14 7 39 7q36 0 97.5 -23.5t92.5 -23.5q78 0 129 94q11 26 14 31q11 19 23 21q5 -4 8 -4q-81 -248 -209 -248q-56 0 -107.5 63t-76.5 63q-30 0 -30 -18q0 -9 9 -29t9 -30q0 -42 -32 -42t-32 54z " />
<glyph unicode="{" d="M178 -141q0 57 29 158l78 272q22 77 22 125q0 76 -73 109q130 42 184 229l88 307q79 275 342 275h20l-8 -27q-110 -5 -164 -46.5t-84 -147.5l-104 -365q-48 -169 -176 -227q65 -40 65 -117q0 -48 -20 -117l-100 -346q-19 -66 -19 -107q0 -95 152 -98l-9 -27h-20 q-203 0 -203 150z" />
<glyph unicode="|" horiz-adv-x="500" d="M212 -342v1708h76v-1708h-76z" />
<glyph unicode="}" d="M-114 -291l8 27q111 5 165 46.5t84 147.5l104 365q48 169 176 228q-65 39 -65 117q0 47 20 116l101 346q18 62 18 107q0 95 -151 98l8 27h20q203 0 203 -150q0 -55 -29 -157l-78 -273q-22 -77 -22 -125q0 -76 74 -108q-131 -43 -185 -230l-88 -307q-79 -275 -342 -275 h-21z" />
<glyph unicode="~" horiz-adv-x="909" d="M55 664q110 172 221 160q53 -6 137 -54q44 -27 133 -79q44 -25 80 -29q89 -9 176 115l36 -52q-105 -160 -218 -148q-41 4 -207 97q-32 20 -98 52q-22 8 -45 10q-92 10 -179 -126z" />
<glyph unicode="&#xa1;" horiz-adv-x="500" d="M-23 -345q0 54 171 440q152 343 196 424v-25q-2 23 -129 -416q-27 -95 -119 -364q-41 -110 -88 -110q-31 0 -31 51zM325 652q0 33 18 69q23 46 60 46q44 0 44 -64q0 -38 -19 -69q-23 -37 -58 -37q-45 0 -45 55z" />
<glyph unicode="&#xa2;" d="M161 443q0 130 93 276q111 174 264 174l61 177h32l-63 -180q83 -21 83 -119q0 -35 -21 -75q-25 -48 -61 -48q-41 0 -41 45q0 41 42.5 64t42.5 34q0 52 -56 66l-210 -598q9 -2 18 -2q46 0 102 54q15 14 93 106h16v-16q0 -4 -27 -41q-96 -130 -194 -130q-13 0 -18 1 l-104 -296h-32l106 302q-60 19 -95 82q-31 56 -31 124zM263 373q0 -72 37 -101l205 586q-102 -15 -181 -234q-61 -169 -61 -251z" />
<glyph unicode="&#xa3;" horiz-adv-x="929" d="M60 256q0 30 47 25l233 -26q76 -8 170 189q-77 8 -90 8q-36 -1 -87 -24l-24 26q58 31 115 31q21 0 100 -10q3 6 18 58l-73 -1q-110 -2 -218 65q-122 75 -122 178q0 91 95 152q84 53 180 53q124 0 157 -86q-48 52 -143 52q-89 0 -166 -46q-89 -53 -89 -136q0 -58 67 -106 q57 -41 120 -54q102 -21 212 -9l84 189q48 93 124 170q114 115 200 115q79 0 79 -86q0 -100 -116 -226q-89 -97 -203 -168q-24 -15 -57 -30q-10 -5 -41 -20l-30 -73q36 -5 68 -5q62 0 104 19l24 -28q-42 -24 -120 -24q-41 0 -92 7q-64 -117 -161 -191q58 -19 198 -19 q205 0 205 115q0 36 -28 36q-13 0 -26 -9q12 34 40 34q45 0 45 -63q0 -85 -93 -127q-69 -31 -169 -31q-64 0 -263 17h-3q-72 -17 -118 -17q-53 0 -94 14q-59 20 -59 62zM662 615q102 14 227.5 142.5t125.5 228.5q0 51 -50 51q-98 0 -196 -165q-78 -131 -107 -257z" />
<glyph unicode="&#xa8;" horiz-adv-x="406" d="M35 799q0 26 16 58q22 44 60 44q46 0 46 -54q0 -35 -22 -69q-25 -39 -58 -39q-42 0 -42 60zM249 799q0 26 16 58q22 44 60 44q46 0 46 -54q0 -35 -22 -69q-25 -39 -58 -39q-42 0 -42 60z" />
<glyph unicode="&#xa9;" horiz-adv-x="1212" d="M107 983q0 140 71 263.5t193 189t254 65.5q138 0 260 -69t188 -189q69 -124 69 -260q0 -139 -69.5 -261t-189.5 -188q-123 -68 -258 -68q-139 0 -260.5 69.5t-188.5 190.5q-69 125 -69 257zM193 983q0 -116 58.5 -217t160 -157.5t213.5 -56.5q117 0 218 58.5t157.5 160 t56.5 212.5q0 117 -59 219.5t-161.5 158t-211.5 55.5q-115 0 -216.5 -58.5t-157.5 -157.5q-58 -103 -58 -217zM354 982q0 188 132 258q64 34 145 34q187 0 234 -162l-81 -20q-43 105 -156 105q-90 0 -138 -66q-43 -58 -43 -151q0 -92 40 -148q46 -65 134 -65q137 0 170 133 l84 -25q-21 -89 -88.5 -138.5t-160.5 -49.5q-129 0 -202 84q-70 80 -70 211z" />
<glyph unicode="&#xab;" horiz-adv-x="500" d="M77 305l23 58q144 92 235 217l16 -14q-98 -175 -184 -242q30 -115 35 -262l-20 -5q-18 112 -105 248zM283 305l24 58q144 92 234 217l17 -14q-98 -174 -185 -242q31 -117 36 -262l-20 -5q-18 111 -106 248z" />
<glyph unicode="&#xad;" horiz-adv-x="400" d="M135 266q11 28 17 60q54 -2 84 -2q37 0 69 2q-11 -35 -14 -60q-33 3 -64 3q-29 0 -92 -3z" />
<glyph unicode="&#xae;" horiz-adv-x="1191" d="M87 992q0 136 71.5 254.5t191.5 180.5q124 64 255 64q138 0 257 -65q123 -67 191 -183q70 -120 70 -251q0 -135 -70.5 -251.5t-189.5 -180.5q-124 -66 -258 -66q-138 0 -259 66q-124 68 -191.5 185.5t-67.5 246.5zM173 992q0 -112 59 -209.5t158 -150.5q103 -55 215 -55 q115 0 217 56t158.5 154t56.5 205q0 113 -60 212t-160 151q-104 54 -212 54q-115 0 -215 -55q-103 -56 -159 -153q-58 -100 -58 -209zM378 717v536h191q165 0 212 -66q26 -37 26 -79q0 -65 -48 -107q-44 -39 -111 -44q30 -12 48 -29q34 -32 82 -106l68 -105h-110l-49 84 q-57 98 -94 125q-26 19 -72 19h-53v-228h-90zM468 1019h109q135 0 135 82q0 50 -52 70q-26 10 -90 10h-102v-162z" />
<glyph unicode="&#xb4;" horiz-adv-x="301" d="M36 751q67 67 121 124q48 51 69 51q39 0 39 -44q0 -26 -54 -57l-157 -91z" />
<glyph unicode="&#xb8;" horiz-adv-x="1024" d="M379 -281l8 23q101 79 101 137q0 24 -17 24q-13 0 -28 -26h-19l35 123h25l-23 -78q11 8 25 8q49 0 49 -49q0 -91 -156 -162z" />
<glyph unicode="&#xbb;" horiz-adv-x="500" d="M-14 71q98 175 185 243q-31 114 -35 261l19 5q18 -112 106 -247l-24 -59q-144 -92 -234 -217zM193 71q98 175 184 243q-30 114 -35 261l20 5q17 -111 106 -247l-24 -59q-144 -92 -234 -217z" />
<glyph unicode="&#xbf;" horiz-adv-x="711" d="M9 -137q0 139 136 252l252 166q136 90 136 174q0 59 -58 59q-34 0 -59.5 -24.5t-25.5 -58.5q0 -6 6.5 -22.5t6.5 -18.5q0 -13 -29 -22q-32 0 -32 44q0 48 45.5 90.5t94.5 42.5q81 0 81 -88q0 -85 -115 -189l-213 -191q-114 -125 -114 -264q0 -74 45.5 -122t119.5 -48 q119 0 227 118t108 238q0 48 -28.5 79.5t-75.5 31.5q-61 0 -102.5 -44.5t-35.5 -105.5q-30 17 -30 44q0 62 62 101q51 32 106 32q72 0 116 -54q42 -50 42 -123q0 -142 -130 -250q-124 -101 -269 -101q-111 0 -189 72t-78 182zM519 686q0 33 19 68q25 46 63 46q44 0 44 -61 q0 -36 -23 -71q-25 -38 -59 -38q-44 0 -44 56z" />
<glyph unicode="&#xc0;" horiz-adv-x="1438" d="M20 104q0 58 39.5 110.5t96.5 52.5q44 0 76.5 -26t32.5 -69q0 -65 -60 -65q-15 0 -34 11q-26 15 -14 49q8 24 8 29q-9 20 -31 20q-37 0 -63 -40q-24 -35 -24 -74q0 -76 74 -123q62 -39 129 -39q114 0 238 78q109 68 189 169q-136 148 -136 337q0 119 62 195q66 82 183 82 q82 0 194 -70q5 8 9 18q19 47 71 167q70 159 80 177q67 120 135 120q99 0 99 -199q0 -81 -23 -235q-17 -107 -56 -378q-33 -245 -33 -285q0 -148 66 -148q32 0 59 34t29 67q12 -5 12 -23q0 -46 -38.5 -79t-85.5 -33q-77 0 -113 82q-5 11 -26 147q-23 147 -51 224 q-55 149 -140 237q-14 -35 -54 -125q-2 -4 -103 -205q-12 -24 -44 -73q-28 -43 -28 -48q11 -17 48 -33t59 -16q15 0 32 6q-11 -27 -46 -27q-57 0 -113 41q-2 -5 -10 -16q-76 -101 -186 -163q-117 -65 -237 -65q-102 0 -179 47q-93 57 -93 157zM571 524q0 -181 124 -310 q4 -1 8 -1q38 48 67 89q60 87 115 204q57 121 57 135q0 9 -31 35q-93 77 -175 77q-92 0 -135 -88q-30 -61 -30 -141zM1008 700q50 -64 72 -116q27 -63 51 -142q4 -13 36 -126q4 15 8 41q9 53 102 449q49 208 49 271q0 112 -57 112q-43 0 -88 -82q-14 -25 -70 -154 q-27 -62 -69 -163q-10 -24 -34 -90zM1151 1483q0 44 39 44q22 0 69 -51q26 -27 121 -124l-18 -17l-157 91q-54 31 -54 57z" />
<glyph unicode="&#xc1;" horiz-adv-x="1438" d="M20 104q0 58 39.5 110.5t96.5 52.5q44 0 76.5 -26t32.5 -69q0 -65 -60 -65q-15 0 -34 11q-26 15 -14 49q8 24 8 29q-9 20 -31 20q-37 0 -63 -40q-24 -35 -24 -74q0 -76 74 -123q62 -39 129 -39q114 0 238 78q109 68 189 169q-136 148 -136 337q0 119 62 195q66 82 183 82 q82 0 194 -70q5 8 9 18q19 47 71 167q70 159 80 177q67 120 135 120q99 0 99 -199q0 -81 -23 -235q-17 -107 -56 -378q-33 -245 -33 -285q0 -148 66 -148q32 0 59 34t29 67q12 -5 12 -23q0 -46 -38.5 -79t-85.5 -33q-77 0 -113 82q-5 11 -26 147q-23 147 -51 224 q-55 149 -140 237q-14 -35 -54 -125q-2 -4 -103 -205q-12 -24 -44 -73q-28 -43 -28 -48q11 -17 48 -33t59 -16q15 0 32 6q-11 -27 -46 -27q-57 0 -113 41q-2 -5 -10 -16q-76 -101 -186 -163q-117 -65 -237 -65q-102 0 -179 47q-93 57 -93 157zM571 524q0 -181 124 -310 q4 -1 8 -1q38 48 67 89q60 87 115 204q57 121 57 135q0 9 -31 35q-93 77 -175 77q-92 0 -135 -88q-30 -61 -30 -141zM1008 700q50 -64 72 -116q27 -63 51 -142q4 -13 36 -126q4 15 8 41q9 53 102 449q49 208 49 271q0 112 -57 112q-43 0 -88 -82q-14 -25 -70 -154 q-27 -62 -69 -163q-10 -24 -34 -90zM1263 1355q67 67 121 124q48 51 69 51q39 0 39 -44q0 -26 -54 -57l-157 -91z" />
<glyph unicode="&#xc2;" horiz-adv-x="1438" d="M20 104q0 58 39.5 110.5t96.5 52.5q44 0 76.5 -26t32.5 -69q0 -65 -60 -65q-15 0 -34 11q-26 15 -14 49q8 24 8 29q-9 20 -31 20q-37 0 -63 -40q-24 -35 -24 -74q0 -76 74 -123q62 -39 129 -39q114 0 238 78q109 68 189 169q-136 148 -136 337q0 119 62 195q66 82 183 82 q82 0 194 -70q5 8 9 18q19 47 71 167q70 159 80 177q67 120 135 120q99 0 99 -199q0 -81 -23 -235q-17 -107 -56 -378q-33 -245 -33 -285q0 -148 66 -148q32 0 59 34t29 67q12 -5 12 -23q0 -46 -38.5 -79t-85.5 -33q-77 0 -113 82q-5 11 -26 147q-23 147 -51 224 q-55 149 -140 237q-14 -35 -54 -125q-2 -4 -103 -205q-12 -24 -44 -73q-28 -43 -28 -48q11 -17 48 -33t59 -16q15 0 32 6q-11 -27 -46 -27q-57 0 -113 41q-2 -5 -10 -16q-76 -101 -186 -163q-117 -65 -237 -65q-102 0 -179 47q-93 57 -93 157zM571 524q0 -181 124 -310 q4 -1 8 -1q38 48 67 89q60 87 115 204q57 121 57 135q0 9 -31 35q-93 77 -175 77q-92 0 -135 -88q-30 -61 -30 -141zM1008 700q50 -64 72 -116q27 -63 51 -142q4 -13 36 -126q4 15 8 41q9 53 102 449q49 208 49 271q0 112 -57 112q-43 0 -88 -82q-14 -25 -70 -154 q-27 -62 -69 -163q-10 -24 -34 -90zM1130 1352l123 139q37 42 61 42q21 0 46 -40l91 -146l-25 -8l-109 115l-171 -115z" />
<glyph unicode="&#xc3;" horiz-adv-x="1438" d="M20 104q0 58 39.5 110.5t96.5 52.5q44 0 76.5 -26t32.5 -69q0 -65 -60 -65q-15 0 -34 11q-26 15 -14 49q8 24 8 29q-9 20 -31 20q-37 0 -63 -40q-24 -35 -24 -74q0 -76 74 -123q62 -39 129 -39q114 0 238 78q109 68 189 169q-136 148 -136 337q0 119 62 195q66 82 183 82 q82 0 194 -70q5 8 9 18q19 47 71 167q70 159 80 177q67 120 135 120q99 0 99 -199q0 -81 -23 -235q-17 -107 -56 -378q-33 -245 -33 -285q0 -148 66 -148q32 0 59 34t29 67q12 -5 12 -23q0 -46 -38.5 -79t-85.5 -33q-77 0 -113 82q-5 11 -26 147q-23 147 -51 224 q-55 149 -140 237q-14 -35 -54 -125q-2 -4 -103 -205q-12 -24 -44 -73q-28 -43 -28 -48q11 -17 48 -33t59 -16q15 0 32 6q-11 -27 -46 -27q-57 0 -113 41q-2 -5 -10 -16q-76 -101 -186 -163q-117 -65 -237 -65q-102 0 -179 47q-93 57 -93 157zM571 524q0 -181 124 -310 q4 -1 8 -1q38 48 67 89q60 87 115 204q57 121 57 135q0 9 -31 35q-93 77 -175 77q-92 0 -135 -88q-30 -61 -30 -141zM1008 700q50 -64 72 -116q27 -63 51 -142q4 -13 36 -126q4 15 8 41q9 53 102 449q49 208 49 271q0 112 -57 112q-43 0 -88 -82q-14 -25 -70 -154 q-27 -62 -69 -163q-10 -24 -34 -90zM1104 1364q88 74 137 74q38 0 86 -19q38 -15 59 -15q42 0 81 29l18 -14q-78 -80 -146 -80q-29 0 -80 20q-39 15 -69 15q-29 0 -68 -22z" />
<glyph unicode="&#xc4;" horiz-adv-x="1438" d="M20 104q0 58 39.5 110.5t96.5 52.5q44 0 76.5 -26t32.5 -69q0 -65 -60 -65q-15 0 -34 11q-26 15 -14 49q8 24 8 29q-9 20 -31 20q-37 0 -63 -40q-24 -35 -24 -74q0 -76 74 -123q62 -39 129 -39q114 0 238 78q109 68 189 169q-136 148 -136 337q0 119 62 195q66 82 183 82 q82 0 194 -70q5 8 9 18q19 47 71 167q70 159 80 177q67 120 135 120q99 0 99 -199q0 -81 -23 -235q-17 -107 -56 -378q-33 -245 -33 -285q0 -148 66 -148q32 0 59 34t29 67q12 -5 12 -23q0 -46 -38.5 -79t-85.5 -33q-77 0 -113 82q-5 11 -26 147q-23 147 -51 224 q-55 149 -140 237q-14 -35 -54 -125q-2 -4 -103 -205q-12 -24 -44 -73q-28 -43 -28 -48q11 -17 48 -33t59 -16q15 0 32 6q-11 -27 -46 -27q-57 0 -113 41q-2 -5 -10 -16q-76 -101 -186 -163q-117 -65 -237 -65q-102 0 -179 47q-93 57 -93 157zM571 524q0 -181 124 -310 q4 -1 8 -1q38 48 67 89q60 87 115 204q57 121 57 135q0 9 -31 35q-93 77 -175 77q-92 0 -135 -88q-30 -61 -30 -141zM1008 700q50 -64 72 -116q27 -63 51 -142q4 -13 36 -126q4 15 8 41q9 53 102 449q49 208 49 271q0 112 -57 112q-43 0 -88 -82q-14 -25 -70 -154 q-27 -62 -69 -163q-10 -24 -34 -90zM1123 1397q0 26 16 58q22 44 60 44q46 0 46 -54q0 -35 -22 -69q-25 -39 -58 -39q-42 0 -42 60zM1337 1397q0 26 16 58q22 44 60 44q46 0 46 -54q0 -35 -22 -69q-25 -39 -58 -39q-42 0 -42 60z" />
<glyph unicode="&#xc5;" horiz-adv-x="1438" d="M20 104q0 58 39.5 110.5t96.5 52.5q44 0 76.5 -26t32.5 -69q0 -65 -60 -65q-15 0 -34 11q-26 15 -14 49q8 24 8 29q-9 20 -31 20q-37 0 -63 -40q-24 -35 -24 -74q0 -76 74 -123q62 -39 129 -39q114 0 238 78q109 68 189 169q-136 148 -136 337q0 119 62 195q66 82 183 82 q82 0 194 -70q5 8 9 18q19 47 71 167q70 159 80 177q67 120 135 120q99 0 99 -199q0 -81 -23 -235q-17 -107 -56 -378q-33 -245 -33 -285q0 -148 66 -148q32 0 59 34t29 67q12 -5 12 -23q0 -46 -38.5 -79t-85.5 -33q-77 0 -113 82q-5 11 -26 147q-23 147 -51 224 q-55 149 -140 237q-14 -35 -54 -125q-2 -4 -103 -205q-12 -24 -44 -73q-28 -43 -28 -48q11 -17 48 -33t59 -16q15 0 32 6q-11 -27 -46 -27q-57 0 -113 41q-2 -5 -10 -16q-76 -101 -186 -163q-117 -65 -237 -65q-102 0 -179 47q-93 57 -93 157zM571 524q0 -181 124 -310 q4 -1 8 -1q38 48 67 89q60 87 115 204q57 121 57 135q0 9 -31 35q-93 77 -175 77q-92 0 -135 -88q-30 -61 -30 -141zM1008 700q50 -64 72 -116q27 -63 51 -142q4 -13 36 -126q4 15 8 41q9 53 102 449q49 208 49 271q0 112 -57 112q-43 0 -88 -82q-14 -25 -70 -154 q-27 -62 -69 -163q-10 -24 -34 -90zM1195 1447q0 52 37.5 91.5t88.5 39.5q45 0 76 -30.5t31 -75.5q0 -53 -38.5 -95t-90.5 -42q-47 0 -75.5 32.5t-28.5 79.5zM1232 1444q0 -72 64 -72q38 0 64 30.5t26 69.5q0 66 -67 66q-36 0 -61.5 -29t-25.5 -65z" />
<glyph unicode="&#xc6;" horiz-adv-x="2305" d="M21 104q0 59 38 109q41 54 98 54q44 0 76.5 -26t32.5 -69q0 -65 -59 -65q-49 0 -49 38q0 7 4.5 22t4.5 23q0 27 -27 27q-38 1 -66 -39q-25 -36 -25 -76q0 -72 67 -119q60 -43 135 -43q115 0 238 77q107 67 189 170q-136 148 -136 337q0 118 62 195q67 82 183 82 q80 0 189 -68q16 17 44 86q24 60 41 97q26 60 81 180q58 117 135 117q98 0 98 -199q0 -157 -48 -427q123 87 319 130q-57 61 -86 128q-6 20 -20 58q-26 22 -63 57q-52 59 -52 148q0 64 41.5 111t104.5 47q18 0 41 -10q27 -11 27 -26t-10 -15q-8 0 -28 12t-23 12 q-52 0 -83 -51q-26 -44 -26 -99q0 -79 70 -140q51 125 203 200q136 67 284 67q83 0 144 -25q85 -34 85 -104q0 -122 -157 -196q-129 -61 -266 -61q-47 0 -136 18q-49 10 -49 11h-16q-2 -3 -2 -12q0 -27 22 -72q24 -50 49 -50q168 20 215 20q75 0 75 -23q0 -38 -52 -59 q-40 -16 -84 -16q-56 0 -105 16q-65 21 -57 21q-19 -6 -91 -36q-134 -56 -231 -175q-105 -129 -105 -265t132 -216q111 -67 258 -67q165 0 319 109q169 119 169 278q0 113 -103 114q-31 0 -66 -15q-42 -19 -42 -46q0 -2 17 -19t17 -33q0 -22 -17 -41.5t-39 -19.5 q-56 0 -56 60q0 59 59 105q56 43 116 43q69 0 110 -46t41 -116q0 -193 -161 -306q-143 -101 -344 -101q-141 0 -269 68q-136 73 -195 194q-22 45 -47 123q-33 102 -43 128q-48 121 -139 210q-38 -59 -84 -157q-62 -132 -79 -162q-73 -133 -73 -122q0 -15 46 -33 q41 -16 61 -16q16 0 32 6q-17 -28 -54 -28q-51 0 -100 39q-183 -242 -437 -242q-104 0 -182 49q-91 57 -91 156zM574 526q0 -200 130 -313q19 24 68 89q29 41 98 171q73 138 73 168q0 12 -31 35q-101 76 -181 76q-82 0 -124 -76q-33 -61 -33 -150zM1011 702 q106 -156 171 -360q10 103 97 464q49 203 49 277q0 103 -56 103q-61 0 -160 -233q-62 -147 -101 -251zM1634 904q80 -43 204 -43q113 0 236 58q147 69 147 168q0 95 -165 95q-136 0 -255 -69q-138 -80 -167 -209z" />
<glyph unicode="&#xc7;" horiz-adv-x="1259" d="M10 864q0 144 149 238q131 83 285 83q151 0 184 -66v-15q-71 50 -171 50q-147 0 -269 -71q-144 -84 -144 -219q0 -201 297 -257q82 220 318 417q250 209 473 209q153 0 153 -133q0 -178 -181 -351q-173 -166 -354 -189q-163 -21 -199 -21q-13 0 -40 3.5t-40 3.5 q-31 0 -56 -153q-21 -126 -21 -189q0 -285 247 -285q147 0 290 116q150 122 150 266q0 120 -103 120q-32 0 -69 -16q-45 -20 -45 -48q0 -8 18.5 -20.5t18.5 -34.5q0 -21 -18.5 -38.5t-39.5 -17.5q-20 0 -35.5 18t-15.5 38q0 60 62 108q58 44 120 44q66 0 105 -48 q36 -45 36 -112q0 -177 -141 -296q-134 -113 -313 -113h-4l-39 -63q9 4 17 4q45 0 45 -52q0 -49 -75 -88q-54 -28 -118 -39l13 20q120 51 133 106q1 7 1 13q0 16 -13 16q-15 0 -32 -19l-18 5l59 98q-170 12 -259 143q-79 116 -79 294q0 97 34 237q-141 51 -211 105 q-105 81 -105 199zM473 587l76 -11q198 0 369 86q184 92 276 255q61 108 61 186q0 96 -111 96q-201 0 -412 -212q-187 -188 -259 -400z" />
<glyph unicode="&#xc8;" horiz-adv-x="1170" d="M39 313q0 290 457 392q5 3 15 8q-73 79 -106 186q-21 16 -60 54q-55 64 -55 151q0 64 41.5 111t105.5 47q18 0 41 -10q27 -11 27 -26t-12 -15q-2 0 -20.5 12t-29.5 12q-26 0 -55 -22q-56 -43 -56 -119q0 -81 78 -150l5 7q54 138 215 207q123 53 266 53q224 0 224 -128 q0 -93 -117 -171q-129 -86 -306 -86q-105 0 -184 28q-8 3 -24 6q1 -10 5 -25q30 -114 70 -114q5 0 18.5 4t18.5 5q110 11 150 11q104 0 104 -23q0 -28 -41 -53q-29 -18 -49 -21q-6 -1 -46 -1q-51 0 -80 7q-9 2 -43.5 16t-38.5 14q-21 0 -115 -45q-126 -60 -215 -175 q-97 -126 -97 -256q0 -145 146 -223q113 -60 244 -60q23 0 108 16q137 26 253 130q127 114 127 241q0 114 -107 114q-30 0 -64 -16q-40 -20 -40 -46q0 -5 17 -18t17 -33q0 -22 -17 -41.5t-39 -19.5q-56 0 -56 60q0 58 59 105q56 43 116 43q69 0 110.5 -46t41.5 -116 q0 -90 -51 -178q-133 -229 -455 -229q-134 0 -250 58q-139 70 -208 205q-43 85 -43 163zM492 900q10 -2 10 -5q105 -38 202 -38q138 0 264 74q118 69 118 152q0 94 -168 94q-112 0 -244 -58q-121 -53 -174 -189q-1 -4 -8 -30zM732 1486q0 44 39 44q22 0 69 -51 q26 -27 121 -124l-18 -17l-157 91q-54 31 -54 57z" />
<glyph unicode="&#xc9;" horiz-adv-x="1170" d="M39 313q0 290 457 392q5 3 15 8q-73 79 -106 186q-21 16 -60 54q-55 64 -55 151q0 64 41.5 111t105.5 47q18 0 41 -10q27 -11 27 -26t-12 -15q-2 0 -20.5 12t-29.5 12q-26 0 -55 -22q-56 -43 -56 -119q0 -81 78 -150l5 7q54 138 215 207q123 53 266 53q224 0 224 -128 q0 -93 -117 -171q-129 -86 -306 -86q-105 0 -184 28q-8 3 -24 6q1 -10 5 -25q30 -114 70 -114q5 0 18.5 4t18.5 5q110 11 150 11q104 0 104 -23q0 -28 -41 -53q-29 -18 -49 -21q-6 -1 -46 -1q-51 0 -80 7q-9 2 -43.5 16t-38.5 14q-21 0 -115 -45q-126 -60 -215 -175 q-97 -126 -97 -256q0 -145 146 -223q113 -60 244 -60q23 0 108 16q137 26 253 130q127 114 127 241q0 114 -107 114q-30 0 -64 -16q-40 -20 -40 -46q0 -5 17 -18t17 -33q0 -22 -17 -41.5t-39 -19.5q-56 0 -56 60q0 58 59 105q56 43 116 43q69 0 110.5 -46t41.5 -116 q0 -90 -51 -178q-133 -229 -455 -229q-134 0 -250 58q-139 70 -208 205q-43 85 -43 163zM492 900q10 -2 10 -5q105 -38 202 -38q138 0 264 74q118 69 118 152q0 94 -168 94q-112 0 -244 -58q-121 -53 -174 -189q-1 -4 -8 -30zM837 1352q67 67 121 124q48 51 69 51 q39 0 39 -44q0 -26 -54 -57l-157 -91z" />
<glyph unicode="&#xca;" horiz-adv-x="1170" d="M39 313q0 290 457 392q5 3 15 8q-73 79 -106 186q-21 16 -60 54q-55 64 -55 151q0 64 41.5 111t105.5 47q18 0 41 -10q27 -11 27 -26t-12 -15q-2 0 -20.5 12t-29.5 12q-26 0 -55 -22q-56 -43 -56 -119q0 -81 78 -150l5 7q54 138 215 207q123 53 266 53q224 0 224 -128 q0 -93 -117 -171q-129 -86 -306 -86q-105 0 -184 28q-8 3 -24 6q1 -10 5 -25q30 -114 70 -114q5 0 18.5 4t18.5 5q110 11 150 11q104 0 104 -23q0 -28 -41 -53q-29 -18 -49 -21q-6 -1 -46 -1q-51 0 -80 7q-9 2 -43.5 16t-38.5 14q-21 0 -115 -45q-126 -60 -215 -175 q-97 -126 -97 -256q0 -145 146 -223q113 -60 244 -60q23 0 108 16q137 26 253 130q127 114 127 241q0 114 -107 114q-30 0 -64 -16q-40 -20 -40 -46q0 -5 17 -18t17 -33q0 -22 -17 -41.5t-39 -19.5q-56 0 -56 60q0 58 59 105q56 43 116 43q69 0 110.5 -46t41.5 -116 q0 -90 -51 -178q-133 -229 -455 -229q-134 0 -250 58q-139 70 -208 205q-43 85 -43 163zM492 900q10 -2 10 -5q105 -38 202 -38q138 0 264 74q118 69 118 152q0 94 -168 94q-112 0 -244 -58q-121 -53 -174 -189q-1 -4 -8 -30zM729 1352l123 139q37 42 61 42q21 0 46 -40 l91 -146l-25 -8l-109 115l-171 -115z" />
<glyph unicode="&#xcb;" horiz-adv-x="1170" d="M39 313q0 290 457 392q5 3 15 8q-73 79 -106 186q-21 16 -60 54q-55 64 -55 151q0 64 41.5 111t105.5 47q18 0 41 -10q27 -11 27 -26t-12 -15q-2 0 -20.5 12t-29.5 12q-26 0 -55 -22q-56 -43 -56 -119q0 -81 78 -150l5 7q54 138 215 207q123 53 266 53q224 0 224 -128 q0 -93 -117 -171q-129 -86 -306 -86q-105 0 -184 28q-8 3 -24 6q1 -10 5 -25q30 -114 70 -114q5 0 18.5 4t18.5 5q110 11 150 11q104 0 104 -23q0 -28 -41 -53q-29 -18 -49 -21q-6 -1 -46 -1q-51 0 -80 7q-9 2 -43.5 16t-38.5 14q-21 0 -115 -45q-126 -60 -215 -175 q-97 -126 -97 -256q0 -145 146 -223q113 -60 244 -60q23 0 108 16q137 26 253 130q127 114 127 241q0 114 -107 114q-30 0 -64 -16q-40 -20 -40 -46q0 -5 17 -18t17 -33q0 -22 -17 -41.5t-39 -19.5q-56 0 -56 60q0 58 59 105q56 43 116 43q69 0 110.5 -46t41.5 -116 q0 -90 -51 -178q-133 -229 -455 -229q-134 0 -250 58q-139 70 -208 205q-43 85 -43 163zM492 900q10 -2 10 -5q105 -38 202 -38q138 0 264 74q118 69 118 152q0 94 -168 94q-112 0 -244 -58q-121 -53 -174 -189q-1 -4 -8 -30zM719 1397q0 26 16 58q22 44 60 44q46 0 46 -54 q0 -35 -22 -69q-25 -39 -58 -39q-42 0 -42 60zM933 1397q0 26 16 58q22 44 60 44q46 0 46 -54q0 -35 -22 -69q-25 -39 -58 -39q-42 0 -42 60z" />
<glyph unicode="&#xcc;" horiz-adv-x="1149" d="M22 55q0 62 45.5 113.5t106.5 51.5q38 0 70.5 -26t32.5 -63q0 -74 -66 -74q-54 0 -55 49q1 4 8 31q1 6 1 10q0 11 -9 15q-43 3 -69 -32q-24 -31 -24 -75q0 -84 81 -133q65 -39 139 -39q164 0 309 118q128 103 207 265q-2 0 -14 7q-117 36 -186 145q-66 102 -66 229 q0 186 143 343q129 141 317 205q103 35 220 35q156 0 156 -29q0 -9 -29 -29q-45 -31 -47 -32q-70 -58 -94 -111q-68 -150 -92 -231q-26 -92 -100 -321q-19 -47 -66 -167q2 0 6 -1t6 -1q27 0 87 44t77 71q43 68 49 123q16 -14 16 -32q0 -88 -92 -163q-78 -62 -175 -86 q-10 -22 -40 -75q-18 -30 -96 -118q-111 -126 -261 -183q-120 -46 -207 -46q-98 0 -182 47q-107 60 -107 165zM614 565q0 -219 197 -265q12 30 101 286t193 403q27 39 68 82q105 112 108 112q0 22 -52 22q-170 0 -318 -102q-139 -97 -218 -253.5t-79 -284.5zM1062 1489 q0 44 39 44q22 0 69 -51q26 -27 121 -124l-18 -17l-157 91q-54 31 -54 57z" />
<glyph unicode="&#xcd;" horiz-adv-x="1149" d="M22 55q0 62 45.5 113.5t106.5 51.5q38 0 70.5 -26t32.5 -63q0 -74 -66 -74q-54 0 -55 49q1 4 8 31q1 6 1 10q0 11 -9 15q-43 3 -69 -32q-24 -31 -24 -75q0 -84 81 -133q65 -39 139 -39q164 0 309 118q128 103 207 265q-2 0 -14 7q-117 36 -186 145q-66 102 -66 229 q0 186 143 343q129 141 317 205q103 35 220 35q156 0 156 -29q0 -9 -29 -29q-45 -31 -47 -32q-70 -58 -94 -111q-68 -150 -92 -231q-26 -92 -100 -321q-19 -47 -66 -167q2 0 6 -1t6 -1q27 0 87 44t77 71q43 68 49 123q16 -14 16 -32q0 -88 -92 -163q-78 -62 -175 -86 q-10 -22 -40 -75q-18 -30 -96 -118q-111 -126 -261 -183q-120 -46 -207 -46q-98 0 -182 47q-107 60 -107 165zM614 565q0 -219 197 -265q12 30 101 286t193 403q27 39 68 82q105 112 108 112q0 22 -52 22q-170 0 -318 -102q-139 -97 -218 -253.5t-79 -284.5zM1155 1358 q67 67 121 124q48 51 69 51q39 0 39 -44q0 -26 -54 -57l-157 -91z" />
<glyph unicode="&#xce;" horiz-adv-x="1149" d="M22 55q0 62 45.5 113.5t106.5 51.5q38 0 70.5 -26t32.5 -63q0 -74 -66 -74q-54 0 -55 49q1 4 8 31q1 6 1 10q0 11 -9 15q-43 3 -69 -32q-24 -31 -24 -75q0 -84 81 -133q65 -39 139 -39q164 0 309 118q128 103 207 265q-2 0 -14 7q-117 36 -186 145q-66 102 -66 229 q0 186 143 343q129 141 317 205q103 35 220 35q156 0 156 -29q0 -9 -29 -29q-45 -31 -47 -32q-70 -58 -94 -111q-68 -150 -92 -231q-26 -92 -100 -321q-19 -47 -66 -167q2 0 6 -1t6 -1q27 0 87 44t77 71q43 68 49 123q16 -14 16 -32q0 -88 -92 -163q-78 -62 -175 -86 q-10 -22 -40 -75q-18 -30 -96 -118q-111 -126 -261 -183q-120 -46 -207 -46q-98 0 -182 47q-107 60 -107 165zM614 565q0 -219 197 -265q12 30 101 286t193 403q27 39 68 82q105 112 108 112q0 22 -52 22q-170 0 -318 -102q-139 -97 -218 -253.5t-79 -284.5zM1034 1352 l123 139q37 42 61 42q21 0 46 -40l91 -146l-25 -8l-109 115l-171 -115z" />
<glyph unicode="&#xcf;" horiz-adv-x="1149" d="M22 55q0 62 45.5 113.5t106.5 51.5q38 0 70.5 -26t32.5 -63q0 -74 -66 -74q-54 0 -55 49q1 4 8 31q1 6 1 10q0 11 -9 15q-43 3 -69 -32q-24 -31 -24 -75q0 -84 81 -133q65 -39 139 -39q164 0 309 118q128 103 207 265q-2 0 -14 7q-117 36 -186 145q-66 102 -66 229 q0 186 143 343q129 141 317 205q103 35 220 35q156 0 156 -29q0 -9 -29 -29q-45 -31 -47 -32q-70 -58 -94 -111q-68 -150 -92 -231q-26 -92 -100 -321q-19 -47 -66 -167q2 0 6 -1t6 -1q27 0 87 44t77 71q43 68 49 123q16 -14 16 -32q0 -88 -92 -163q-78 -62 -175 -86 q-10 -22 -40 -75q-18 -30 -96 -118q-111 -126 -261 -183q-120 -46 -207 -46q-98 0 -182 47q-107 60 -107 165zM614 565q0 -219 197 -265q12 30 101 286t193 403q27 39 68 82q105 112 108 112q0 22 -52 22q-170 0 -318 -102q-139 -97 -218 -253.5t-79 -284.5zM1021 1397 q0 26 16 58q22 44 60 44q46 0 46 -54q0 -35 -22 -69q-25 -39 -58 -39q-42 0 -42 60zM1235 1397q0 26 16 58q22 44 60 44q46 0 46 -54q0 -35 -22 -69q-25 -39 -58 -39q-42 0 -42 60z" />
<glyph unicode="&#xd1;" horiz-adv-x="1553" d="M7 -23q0 37 75 37q24 -2 141 -13l141 -14q44 0 111 63q62 58 89 109q16 33 60 116q75 138 130.5 357t55.5 377q0 55 -1 61q-17 24 -29 44q-28 47 -28 94q0 36 24 75q27 43 61 43q-10 -15 -10 -30q0 -46 135 -252q169 -258 268 -517q25 -66 43 -137q22 -89 29 -111 q3 3 7 9q25 144 88 388q46 176 129 313q50 82 125 155q90 87 153 99q4 0 14.5 4.5t15.5 4.5q44 0 44 -42q0 -24 -25.5 -50.5t-49.5 -26.5l-19.5 12t-31.5 12q-98 0 -224 -247q-55 -108 -88 -235q-102 -393 -102 -585q2 -12 8 -40q7 -32 -4 -91q-13 -71 -44 -71 q-40 0 -43 102q-1 38 3 72q-5 43 -27 123q-57 214 -154 430q-107 243 -225 396l-4 -5q0 -85 -5 -130q-72 -654 -370 -888l9 -7l54 -3l38 -1q203 0 203 80q0 6 -1 13q0 5 5 15q15 -20 15 -42q0 -114 -263 -114q-12 0 -62 3l-62 4q-10 -2 -48 -13q-44 -13 -76 -20 q-54 -12 -126 -12q-53 0 -95 18q-57 23 -57 68zM1092 1365q88 74 137 74q38 0 86 -19q38 -15 59 -15q42 0 81 29l18 -14q-78 -80 -146 -80q-29 0 -80 20q-39 15 -69 15q-29 0 -68 -22z" />
<glyph unicode="&#xd2;" horiz-adv-x="1050" d="M62 408q0 162 55 307q81 215 311 379q218 156 406 156q48 0 88 -18q52 -23 52 -65q0 1 -5 -12q-28 67 -140 67q-95 0 -226 -71q-156 -84 -285 -298q-37 -61 -101 -231q-73 -194 -73 -360q0 -137 55 -231q71 -121 217 -121q223 0 402 298q119 198 157 394q26 133 26 208 q0 101 -29 175q-40 102 -126 102q-67 0 -122 -41q-111 -82 -175 -247q-45 -116 -45 -239q0 -66 18 -145q26 -114 90 -134q6 -2 23 -6q2 -4 2 -7q-6 -5 -29 -11q-4 -1 -27.5 11t-27.5 17q-83 96 -83 275q0 273 187 470q109 115 215 115q100 0 147 -100q33 -71 33 -167 q0 -316 -175 -634q-199 -361 -465 -361q-192 0 -284 198q-66 142 -66 327zM683 1483q0 44 39 44q22 0 69 -51q26 -27 121 -124l-18 -17l-157 91q-54 31 -54 57z" />
<glyph unicode="&#xd3;" horiz-adv-x="1050" d="M62 408q0 162 55 307q81 215 311 379q218 156 406 156q48 0 88 -18q52 -23 52 -65q0 1 -5 -12q-28 67 -140 67q-95 0 -226 -71q-156 -84 -285 -298q-37 -61 -101 -231q-73 -194 -73 -360q0 -137 55 -231q71 -121 217 -121q223 0 402 298q119 198 157 394q26 133 26 208 q0 101 -29 175q-40 102 -126 102q-67 0 -122 -41q-111 -82 -175 -247q-45 -116 -45 -239q0 -66 18 -145q26 -114 90 -134q6 -2 23 -6q2 -4 2 -7q-6 -5 -29 -11q-4 -1 -27.5 11t-27.5 17q-83 96 -83 275q0 273 187 470q109 115 215 115q100 0 147 -100q33 -71 33 -167 q0 -316 -175 -634q-199 -361 -465 -361q-192 0 -284 198q-66 142 -66 327zM794 1355q67 67 121 124q48 51 69 51q39 0 39 -44q0 -26 -54 -57l-157 -91z" />
<glyph unicode="&#xd4;" horiz-adv-x="1050" d="M62 408q0 162 55 307q81 215 311 379q218 156 406 156q48 0 88 -18q52 -23 52 -65q0 1 -5 -12q-28 67 -140 67q-95 0 -226 -71q-156 -84 -285 -298q-37 -61 -101 -231q-73 -194 -73 -360q0 -137 55 -231q71 -121 217 -121q223 0 402 298q119 198 157 394q26 133 26 208 q0 101 -29 175q-40 102 -126 102q-67 0 -122 -41q-111 -82 -175 -247q-45 -116 -45 -239q0 -66 18 -145q26 -114 90 -134q6 -2 23 -6q2 -4 2 -7q-6 -5 -29 -11q-4 -1 -27.5 11t-27.5 17q-83 96 -83 275q0 273 187 470q109 115 215 115q100 0 147 -100q33 -71 33 -167 q0 -316 -175 -634q-199 -361 -465 -361q-192 0 -284 198q-66 142 -66 327zM683 1349l123 139q37 42 61 42q21 0 46 -40l91 -146l-25 -8l-109 115l-171 -115z" />
<glyph unicode="&#xd5;" horiz-adv-x="1050" d="M62 408q0 162 55 307q81 215 311 379q218 156 406 156q48 0 88 -18q52 -23 52 -65q0 1 -5 -12q-28 67 -140 67q-95 0 -226 -71q-156 -84 -285 -298q-37 -61 -101 -231q-73 -194 -73 -360q0 -137 55 -231q71 -121 217 -121q223 0 402 298q119 198 157 394q26 133 26 208 q0 101 -29 175q-40 102 -126 102q-67 0 -122 -41q-111 -82 -175 -247q-45 -116 -45 -239q0 -66 18 -145q26 -114 90 -134q6 -2 23 -6q2 -4 2 -7q-6 -5 -29 -11q-4 -1 -27.5 11t-27.5 17q-83 96 -83 275q0 273 187 470q109 115 215 115q100 0 147 -100q33 -71 33 -167 q0 -316 -175 -634q-199 -361 -465 -361q-192 0 -284 198q-66 142 -66 327zM627 1361q88 74 137 74q38 0 86 -19q38 -15 59 -15q42 0 81 29l18 -14q-78 -80 -146 -80q-29 0 -80 20q-39 15 -69 15q-29 0 -68 -22z" />
<glyph unicode="&#xd6;" horiz-adv-x="1050" d="M62 408q0 162 55 307q81 215 311 379q218 156 406 156q48 0 88 -18q52 -23 52 -65q0 1 -5 -12q-28 67 -140 67q-95 0 -226 -71q-156 -84 -285 -298q-37 -61 -101 -231q-73 -194 -73 -360q0 -137 55 -231q71 -121 217 -121q223 0 402 298q119 198 157 394q26 133 26 208 q0 101 -29 175q-40 102 -126 102q-67 0 -122 -41q-111 -82 -175 -247q-45 -116 -45 -239q0 -66 18 -145q26 -114 90 -134q6 -2 23 -6q2 -4 2 -7q-6 -5 -29 -11q-4 -1 -27.5 11t-27.5 17q-83 96 -83 275q0 273 187 470q109 115 215 115q100 0 147 -100q33 -71 33 -167 q0 -316 -175 -634q-199 -361 -465 -361q-192 0 -284 198q-66 142 -66 327zM670 1394q0 26 16 58q22 44 60 44q46 0 46 -54q0 -35 -22 -69q-25 -39 -58 -39q-42 0 -42 60zM884 1394q0 26 16 58q22 44 60 44q46 0 46 -54q0 -35 -22 -69q-25 -39 -58 -39q-42 0 -42 60z" />
<glyph unicode="&#xd8;" horiz-adv-x="1050" d="M23 -173l139 193q-19 28 -34 61q-66 142 -66 327q0 162 55 307q81 215 311 379q218 156 406 156q106 0 134 -57q54 85 95 153q11 -7 34 -7q29 0 48 13q28 19 43 25q-103 -138 -204 -278q68 -73 68 -221q0 -316 -175 -634q-199 -361 -465 -361q-121 0 -202 79l-55 -86 q-5 0 -15.5 1.5t-15.5 1.5q-34 0 -101 -52zM144 262q0 -121 42 -207q158 220 291 410q-7 44 -7 95q0 273 187 470q109 115 215 115q32 0 59 -10l26 41q-35 46 -128 46q-95 0 -226 -71q-156 -84 -285 -298q-37 -61 -101 -231q-73 -194 -73 -360zM228 -10q69 -80 188 -80 q223 0 402 298q119 198 157 394q26 133 26 208q0 155 -60 230q-215 -300 -423 -609l4 -16q25 -114 90 -134q6 -2 23 -6q2 -4 2 -7q-6 -5 -29 -11q-4 -1 -27.5 11t-27.5 17q-39 45 -60 109q-134 -200 -265 -404zM504 560q0 -25 3 -52q234 335 387 570q-22 9 -48 9 q-67 0 -122 -41q-111 -82 -175 -247q-45 -116 -45 -239z" />
<glyph unicode="&#xd9;" horiz-adv-x="1367" d="M18 781q0 198 155.5 349t354.5 151q255 0 255 -238q0 -133 -122.5 -449t-122.5 -437q0 -70 34 -114q38 -48 106 -48q102 0 223 147q91 110 140 226q6 41 22 143q9 52 41 163q23 81 85 230q91 220 133 220q25 0 26 -51q1 -135 -214 -604q-14 -30 -14 -200q0 -253 102 -253 q83 0 134 122q5 -5 5 -12q0 -56 -61.5 -110.5t-118.5 -54.5q-141 0 -149 219l-3 84q-110 -149 -162 -201q-103 -102 -194 -102q-114 0 -165 110q-34 74 -34 181q0 166 67 320q43 88 127 265q68 144 68 253q0 153 -164 153q-181 0 -342 -167.5t-161 -348.5q0 -64 43 -114 q45 -53 108 -53q100 0 186 118q81 111 81 213q0 29 -9 51q33 -5 33 -74q0 -110 -85 -219q-93 -120 -212 -120q-101 0 -154 86q-42 69 -42 166zM905 1483q0 44 39 44q22 0 69 -51q26 -27 121 -124l-18 -17l-157 91q-54 31 -54 57zM1154 597q15 12 76 166q67 170 67 242 q0 12 -9 21q-55 -66 -106 -267q-30 -118 -28 -140v-22z" />
<glyph unicode="&#xda;" horiz-adv-x="1367" d="M18 781q0 198 155.5 349t354.5 151q255 0 255 -238q0 -133 -122.5 -449t-122.5 -437q0 -70 34 -114q38 -48 106 -48q102 0 223 147q91 110 140 226q6 41 22 143q9 52 41 163q23 81 85 230q91 220 133 220q25 0 26 -51q1 -135 -214 -604q-14 -30 -14 -200q0 -253 102 -253 q83 0 134 122q5 -5 5 -12q0 -56 -61.5 -110.5t-118.5 -54.5q-141 0 -149 219l-3 84q-110 -149 -162 -201q-103 -102 -194 -102q-114 0 -165 110q-34 74 -34 181q0 166 67 320q43 88 127 265q68 144 68 253q0 153 -164 153q-181 0 -342 -167.5t-161 -348.5q0 -64 43 -114 q45 -53 108 -53q100 0 186 118q81 111 81 213q0 29 -9 51q33 -5 33 -74q0 -110 -85 -219q-93 -120 -212 -120q-101 0 -154 86q-42 69 -42 166zM1013 1358q67 67 121 124q48 51 69 51q39 0 39 -44q0 -26 -54 -57l-157 -91zM1154 597q15 12 76 166q67 170 67 242q0 12 -9 21 q-55 -66 -106 -267q-30 -118 -28 -140v-22z" />
<glyph unicode="&#xdb;" horiz-adv-x="1367" d="M18 781q0 198 155.5 349t354.5 151q255 0 255 -238q0 -133 -122.5 -449t-122.5 -437q0 -70 34 -114q38 -48 106 -48q102 0 223 147q91 110 140 226q6 41 22 143q9 52 41 163q23 81 85 230q91 220 133 220q25 0 26 -51q1 -135 -214 -604q-14 -30 -14 -200q0 -253 102 -253 q83 0 134 122q5 -5 5 -12q0 -56 -61.5 -110.5t-118.5 -54.5q-141 0 -149 219l-3 84q-110 -149 -162 -201q-103 -102 -194 -102q-114 0 -165 110q-34 74 -34 181q0 166 67 320q43 88 127 265q68 144 68 253q0 153 -164 153q-181 0 -342 -167.5t-161 -348.5q0 -64 43 -114 q45 -53 108 -53q100 0 186 118q81 111 81 213q0 29 -9 51q33 -5 33 -74q0 -110 -85 -219q-93 -120 -212 -120q-101 0 -154 86q-42 69 -42 166zM933 1349l123 139q37 42 61 42q21 0 46 -40l91 -146l-25 -8l-109 115l-171 -115zM1154 597q15 12 76 166q67 170 67 242 q0 12 -9 21q-55 -66 -106 -267q-30 -118 -28 -140v-22z" />
<glyph unicode="&#xdc;" horiz-adv-x="1367" d="M18 781q0 198 155.5 349t354.5 151q255 0 255 -238q0 -133 -122.5 -449t-122.5 -437q0 -70 34 -114q38 -48 106 -48q102 0 223 147q91 110 140 226q6 41 22 143q9 52 41 163q23 81 85 230q91 220 133 220q25 0 26 -51q1 -135 -214 -604q-14 -30 -14 -200q0 -253 102 -253 q83 0 134 122q5 -5 5 -12q0 -56 -61.5 -110.5t-118.5 -54.5q-141 0 -149 219l-3 84q-110 -149 -162 -201q-103 -102 -194 -102q-114 0 -165 110q-34 74 -34 181q0 166 67 320q43 88 127 265q68 144 68 253q0 153 -164 153q-181 0 -342 -167.5t-161 -348.5q0 -64 43 -114 q45 -53 108 -53q100 0 186 118q81 111 81 213q0 29 -9 51q33 -5 33 -74q0 -110 -85 -219q-93 -120 -212 -120q-101 0 -154 86q-42 69 -42 166zM920 1394q0 26 16 58q22 44 60 44q46 0 46 -54q0 -35 -22 -69q-25 -39 -58 -39q-42 0 -42 60zM1134 1394q0 26 16 58q22 44 60 44 q46 0 46 -54q0 -35 -22 -69q-25 -39 -58 -39q-42 0 -42 60zM1154 597q15 12 76 166q67 170 67 242q0 12 -9 21q-55 -66 -106 -267q-30 -118 -28 -140v-22z" />
<glyph unicode="&#xdd;" horiz-adv-x="1339" d="M20 701q0 201 160 352t362 151q129 0 202 -63q78 -66 78 -193q0 -126 -115.5 -385t-115.5 -386q0 -69 34 -115q39 -51 106 -51q116 0 244 127q115 114 173 257q9 49 28 148q43 209 121 209q25 0 25 -32q0 -20 -60 -160q-63 -147 -66 -161q-17 -80 -32 -234 q-17 -179 -33 -266q-41 -227 -257 -380q-194 -138 -402 -138q-100 0 -173 43q-92 54 -92 161q0 60 32 101q35 45 94 45q37 0 66 -23.5t29 -59.5q0 -63 -60 -63q-53 0 -53 56q0 17 7 37q-5 6 -13 6q-68 0 -68 -94q0 -88 68 -135q59 -40 151 -40q245 0 436 233 q154 187 210 452q40 189 40 212q0 6 -2 8q-212 -334 -415 -334q-106 0 -163 76q-52 68 -52 177q0 140 128.5 397t128.5 354q0 83 -54.5 131.5t-138.5 48.5q-180 0 -347 -165t-167 -345q0 -68 47 -109.5t116 -41.5q112 0 197 105q81 100 81 214q0 11 -1 23q16 -22 16 -60 q0 -109 -91 -208t-199 -99q-95 0 -152.5 60.5t-57.5 156.5zM936 1351q67 67 121 124q48 51 69 51q39 0 39 -44q0 -26 -54 -57l-157 -91z" />
<glyph unicode="&#xdf;" horiz-adv-x="645" d="M-464 -329q0 53 49 53q31 0 45.5 -34t63.5 -34q124 0 233 188q56 97 129 298q109 301 243 660q74 197 200 197q133 0 123 -162q-11 -169 -112 -231q63 -86 63 -186q0 -63 -24 -137q37 -35 63 -94l-19 -11q-9 15 -26 43q-9 12 -26 35q-87 -260 -281 -260q-96 0 -127 76 q-2 -7 -9 -23q-192 -438 -486 -438q-102 0 -102 60zM153 115q-1 -37 31 -64.5t69 -27.5q122 0 199 284q-54 9 -99 9q-74 0 -135.5 -63.5t-64.5 -137.5zM205 281q72 58 171 58q36 0 84 -7q44 129 44 192q0 42 -15 70q-32 -11 -53 -11q-35 0 -35 23q0 32 43 32q23 0 47 -15 q46 22 76 92q26 59 30 120q9 140 -92 140q-47 0 -94 -130z" />
<glyph unicode="&#xe0;" horiz-adv-x="628" d="M54 216q0 228 187 381q80 66 150 66q73 0 117 -91q10 23 34 67h89q5 -3 5 -11q-4 -14 -36 -110q-139 -415 -139 -439v-15q0 -37 34 -37q43 0 111 122h26q-71 -153 -156 -153q-53 0 -79 41q-12 19 -31 89q-58 -70 -73 -84q-46 -42 -99 -42q-140 0 -140 216zM153 114 q0 -83 56 -83q72 0 152 145q58 105 90 216q22 77 22 124q0 117 -68 117q-77 0 -156 -166q-59 -123 -84 -243q-12 -57 -12 -110zM289 882q0 44 39 44q22 0 69 -51q26 -27 121 -124l-18 -17l-157 91q-54 31 -54 57z" />
<glyph unicode="&#xe1;" horiz-adv-x="628" d="M54 216q0 228 187 381q80 66 150 66q73 0 117 -91q10 23 34 67h89q5 -3 5 -11q-4 -14 -36 -110q-139 -415 -139 -439v-15q0 -37 34 -37q43 0 111 122h26q-71 -153 -156 -153q-53 0 -79 41q-12 19 -31 89q-58 -70 -73 -84q-46 -42 -99 -42q-140 0 -140 216zM153 114 q0 -83 56 -83q72 0 152 145q58 105 90 216q22 77 22 124q0 117 -68 117q-77 0 -156 -166q-59 -123 -84 -243q-12 -57 -12 -110zM372 751q67 67 121 124q48 51 69 51q39 0 39 -44q0 -26 -54 -57l-157 -91z" />
<glyph unicode="&#xe2;" horiz-adv-x="628" d="M54 216q0 228 187 381q80 66 150 66q73 0 117 -91q10 23 34 67h89q5 -3 5 -11q-4 -14 -36 -110q-139 -415 -139 -439v-15q0 -37 34 -37q43 0 111 122h26q-71 -153 -156 -153q-53 0 -79 41q-12 19 -31 89q-58 -70 -73 -84q-46 -42 -99 -42q-140 0 -140 216zM153 114 q0 -83 56 -83q72 0 152 145q58 105 90 216q22 77 22 124q0 117 -68 117q-77 0 -156 -166q-59 -123 -84 -243q-12 -57 -12 -110zM267 748l123 139q37 42 61 42q21 0 46 -40l91 -146l-25 -8l-109 115l-171 -115z" />
<glyph unicode="&#xe3;" horiz-adv-x="628" d="M54 216q0 228 187 381q80 66 150 66q73 0 117 -91q10 23 34 67h89q5 -3 5 -11q-4 -14 -36 -110q-139 -415 -139 -439v-15q0 -37 34 -37q43 0 111 122h26q-71 -153 -156 -153q-53 0 -79 41q-12 19 -31 89q-58 -70 -73 -84q-46 -42 -99 -42q-140 0 -140 216zM153 114 q0 -83 56 -83q72 0 152 145q58 105 90 216q22 77 22 124q0 117 -68 117q-77 0 -156 -166q-59 -123 -84 -243q-12 -57 -12 -110zM263 800q88 74 137 74q38 0 86 -19q38 -15 59 -15q42 0 81 29l18 -14q-78 -80 -146 -80q-29 0 -80 20q-39 15 -69 15q-29 0 -68 -22z" />
<glyph unicode="&#xe4;" horiz-adv-x="628" d="M54 216q0 228 187 381q80 66 150 66q73 0 117 -91q10 23 34 67h89q5 -3 5 -11q-4 -14 -36 -110q-139 -415 -139 -439v-15q0 -37 34 -37q43 0 111 122h26q-71 -153 -156 -153q-53 0 -79 41q-12 19 -31 89q-58 -70 -73 -84q-46 -42 -99 -42q-140 0 -140 216zM153 114 q0 -83 56 -83q72 0 152 145q58 105 90 216q22 77 22 124q0 117 -68 117q-77 0 -156 -166q-59 -123 -84 -243q-12 -57 -12 -110zM272 799q0 26 16 58q22 44 60 44q46 0 46 -54q0 -35 -22 -69q-25 -39 -58 -39q-42 0 -42 60zM486 799q0 26 16 58q22 44 60 44q46 0 46 -54 q0 -35 -22 -69q-25 -39 -58 -39q-42 0 -42 60z" />
<glyph unicode="&#xe5;" horiz-adv-x="628" d="M54 216q0 228 187 381q80 66 150 66q73 0 117 -91q10 23 34 67h89q5 -3 5 -11q-4 -14 -36 -110q-139 -415 -139 -439v-15q0 -37 34 -37q43 0 111 122h26q-71 -153 -156 -153q-53 0 -79 41q-12 19 -31 89q-58 -70 -73 -84q-46 -42 -99 -42q-140 0 -140 216zM153 114 q0 -83 56 -83q72 0 152 145q58 105 90 216q22 77 22 124q0 117 -68 117q-77 0 -156 -166q-59 -123 -84 -243q-12 -57 -12 -110zM320 827q0 52 37.5 91.5t88.5 39.5q45 0 76 -30.5t31 -75.5q0 -53 -38.5 -95t-90.5 -42q-47 0 -75.5 32.5t-28.5 79.5zM357 824q0 -72 64 -72 q38 0 64 30.5t26 69.5q0 66 -67 66q-36 0 -61.5 -29t-25.5 -65z" />
<glyph unicode="&#xe6;" horiz-adv-x="851" d="M54 216q0 149 100 293q107 154 237 154q73 0 117 -91q10 23 34 67h89q5 -4 5 -11v-1q54 36 113 36q112 0 112 -112q0 -157 -249 -235q-26 -8 -56 -15q-9 -2 -30 -6q-32 -85 -32 -154q0 -111 83 -111q77 0 187 153h22q-25 -67 -86 -123q-68 -61 -133 -61q-123 0 -163 156 q-127 -155 -210 -155q-140 0 -140 216zM153 114q0 -83 56 -83q98 0 189 222q75 183 75 263q0 117 -68 117q-107 0 -189 -246q-63 -188 -63 -273zM540 333l30 3q44 4 109 56.5t79 94.5q18 53 18 86q0 56 -34 56q-93 0 -169 -206z" />
<glyph unicode="&#xe7;" horiz-adv-x="525" d="M58 213q0 130 93 276q111 174 264 174q50 0 81 -35.5t31 -86.5q0 -37 -20 -75q-25 -47 -61 -47q-41 0 -41 44q0 41 42.5 64t42.5 34q0 28 -22 48t-51 20q-110 0 -193 -225q-64 -173 -64 -261q0 -116 81 -116q47 0 103 54q10 10 92 106h16v-15q0 -7 -26 -42 q-94 -128 -191 -130l-36 -60q13 5 26 2q48 -13 35 -61q-23 -87 -193 -116l14 20q118 51 133 107q7 24 -10 28q-12 3 -34 -19l-18 5l57 96q-71 9 -113 76q-38 59 -38 135z" />
<glyph unicode="&#xe8;" horiz-adv-x="514" d="M57 208q0 144 105 292q113 160 252 160q110 0 110 -109q0 -157 -250 -235q-26 -8 -55 -15q-10 -1 -24.5 -7.5t-22.5 -44.5q-15 -67 -15 -108q0 -111 83 -111q77 0 186 153h23q-25 -66 -87 -122q-68 -62 -132 -62q-132 0 -169 179q-4 19 -4 30zM200 335q16 -2 31 1 q54 10 112 55q62 47 78 96q18 54 18 86q0 56 -34 56q-91 0 -186 -236q-20 -49 -19 -58zM273 882q0 44 39 44q22 0 69 -51q26 -27 121 -124l-18 -17l-157 91q-54 31 -54 57z" />
<glyph unicode="&#xe9;" horiz-adv-x="514" d="M57 208q0 144 105 292q113 160 252 160q110 0 110 -109q0 -157 -250 -235q-26 -8 -55 -15q-10 -1 -24.5 -7.5t-22.5 -44.5q-15 -67 -15 -108q0 -111 83 -111q77 0 186 153h23q-25 -66 -87 -122q-68 -62 -132 -62q-132 0 -169 179q-4 19 -4 30zM200 335q16 -2 31 1 q54 10 112 55q62 47 78 96q18 54 18 86q0 56 -34 56q-91 0 -186 -236q-20 -49 -19 -58zM366 751q67 67 121 124q48 51 69 51q39 0 39 -44q0 -26 -54 -57l-157 -91z" />
<glyph unicode="&#xea;" horiz-adv-x="514" d="M57 208q0 144 105 292q113 160 252 160q110 0 110 -109q0 -157 -250 -235q-26 -8 -55 -15q-10 -1 -24.5 -7.5t-22.5 -44.5q-15 -67 -15 -108q0 -111 83 -111q77 0 186 153h23q-25 -66 -87 -122q-68 -62 -132 -62q-132 0 -169 179q-4 19 -4 30zM200 335q16 -2 31 1 q54 10 112 55q62 47 78 96q18 54 18 86q0 56 -34 56q-91 0 -186 -236q-20 -49 -19 -58zM239 748l123 139q37 42 61 42q21 0 46 -40l91 -146l-25 -8l-109 115l-171 -115z" />
<glyph unicode="&#xeb;" horiz-adv-x="514" d="M57 208q0 144 105 292q113 160 252 160q110 0 110 -109q0 -157 -250 -235q-26 -8 -55 -15q-10 -1 -24.5 -7.5t-22.5 -44.5q-15 -67 -15 -108q0 -111 83 -111q77 0 186 153h23q-25 -66 -87 -122q-68 -62 -132 -62q-132 0 -169 179q-4 19 -4 30zM200 335q16 -2 31 1 q54 10 112 55q62 47 78 96q18 54 18 86q0 56 -34 56q-91 0 -186 -236q-20 -49 -19 -58zM248 799q0 26 16 58q22 44 60 44q46 0 46 -54q0 -35 -22 -69q-25 -39 -58 -39q-42 0 -42 60zM462 799q0 26 16 58q22 44 60 44q46 0 46 -54q0 -35 -22 -69q-25 -39 -58 -39 q-42 0 -42 60z" />
<glyph unicode="&#xec;" horiz-adv-x="345" d="M61 118q0 72 73.5 241t73.5 219q0 34 -24 34q-21 0 -44 -28q-30 -36 -36 -40l-20 5q7 37 44.5 70.5t75.5 33.5q92 0 92 -107q0 -64 -75 -251t-75 -223q0 -38 31 -38q30 0 72 44q34 36 51 72l21 -4q-13 -51 -59 -97q-50 -49 -100 -49q-101 0 -101 118zM125 882q0 44 39 44 q22 0 69 -51q26 -27 121 -124l-18 -17l-157 91q-54 31 -54 57z" />
<glyph unicode="&#xed;" horiz-adv-x="345" d="M61 118q0 72 73.5 241t73.5 219q0 34 -24 34q-21 0 -44 -28q-30 -36 -36 -40l-20 5q7 37 44.5 70.5t75.5 33.5q92 0 92 -107q0 -64 -75 -251t-75 -223q0 -38 31 -38q30 0 72 44q34 36 51 72l21 -4q-13 -51 -59 -97q-50 -49 -100 -49q-101 0 -101 118zM200 751 q67 67 121 124q48 51 69 51q39 0 39 -44q0 -26 -54 -57l-157 -91z" />
<glyph unicode="&#xee;" horiz-adv-x="345" d="M61 118q0 72 73.5 241t73.5 219q0 34 -24 34q-21 0 -44 -28q-30 -36 -36 -40l-20 5q7 37 44.5 70.5t75.5 33.5q92 0 92 -107q0 -64 -75 -251t-75 -223q0 -38 31 -38q30 0 72 44q34 36 51 72l21 -4q-13 -51 -59 -97q-50 -49 -100 -49q-101 0 -101 118zM85 748l123 139 q37 42 61 42q21 0 46 -40l91 -146l-25 -8l-109 115l-171 -115z" />
<glyph unicode="&#xef;" horiz-adv-x="345" d="M61 118q0 72 73.5 241t73.5 219q0 34 -24 34q-21 0 -44 -28q-30 -36 -36 -40l-20 5q7 37 44.5 70.5t75.5 33.5q92 0 92 -107q0 -64 -75 -251t-75 -223q0 -38 31 -38q30 0 72 44q34 36 51 72l21 -4q-13 -51 -59 -97q-50 -49 -100 -49q-101 0 -101 118zM88 799q0 26 16 58 q22 44 60 44q46 0 46 -54q0 -35 -22 -69q-25 -39 -58 -39q-42 0 -42 60zM302 799q0 26 16 58q22 44 60 44q46 0 46 -54q0 -35 -22 -69q-25 -39 -58 -39q-42 0 -42 60z" />
<glyph unicode="&#xf1;" horiz-adv-x="670" d="M9 6v11q0 20 98.5 265t98.5 292q0 34 -22 34q-34 0 -78 -71h-22v14q0 17 34 49.5t45 36.5q20 8 39 8q83 0 83 -112q0 6 -4 -72q149 188 236 188q101 0 101 -114q0 -68 -83.5 -249.5t-83.5 -216.5q0 -40 39 -40q44 0 89 66q17 28 53 84h15q5 -5 5 -12q0 -27 -50 -88 q-69 -84 -134 -84q-95 0 -95 121q0 73 78 239.5t78 206.5q0 47 -37 47q-48 0 -121 -89q-123 -149 -218 -408q-12 -28 -43 -105q-2 -5 -49 -5q-32 0 -52 4zM291 800q88 74 137 74q38 0 86 -19q38 -15 59 -15q42 0 81 29l18 -14q-78 -80 -146 -80q-29 0 -80 20q-39 15 -69 15 q-29 0 -68 -22z" />
<glyph unicode="&#xf2;" d="M57 216q0 142 104 287q113 157 250 157q123 0 128 -180q1 -53 -11 -101l11 -5q46 -3 66 36q17 31 13 79q1 5 10 5q21 0 21 -45q0 -114 -127 -113l-39 -92q-103 -244 -253 -244q-80 0 -129 70q-44 63 -44 146zM159 145q0 -114 83 -114q125 0 220 249q21 55 24 65 q-8 11 -25 35q-20 31 -20 73q0 69 51 88q2 30 -19.5 58t-51.5 28q-93 0 -183 -199q-79 -174 -79 -283zM317 882q0 44 39 44q22 0 69 -51q26 -27 121 -124l-18 -17l-157 91q-54 31 -54 57z" />
<glyph unicode="&#xf3;" d="M57 216q0 142 104 287q113 157 250 157q123 0 128 -180q1 -53 -11 -101l11 -5q46 -3 66 36q17 31 13 79q1 5 10 5q21 0 21 -45q0 -114 -127 -113l-39 -92q-103 -244 -253 -244q-80 0 -129 70q-44 63 -44 146zM159 145q0 -114 83 -114q125 0 220 249q21 55 24 65 q-8 11 -25 35q-20 31 -20 73q0 69 51 88q2 30 -19.5 58t-51.5 28q-93 0 -183 -199q-79 -174 -79 -283zM350 751q67 67 121 124q48 51 69 51q39 0 39 -44q0 -26 -54 -57l-157 -91z" />
<glyph unicode="&#xf4;" d="M57 216q0 142 104 287q113 157 250 157q123 0 128 -180q1 -53 -11 -101l11 -5q46 -3 66 36q17 31 13 79q1 5 10 5q21 0 21 -45q0 -114 -127 -113l-39 -92q-103 -244 -253 -244q-80 0 -129 70q-44 63 -44 146zM159 145q0 -114 83 -114q125 0 220 249q21 55 24 65 q-8 11 -25 35q-20 31 -20 73q0 69 51 88q2 30 -19.5 58t-51.5 28q-93 0 -183 -199q-79 -174 -79 -283zM252 748l123 139q37 42 61 42q21 0 46 -40l91 -146l-25 -8l-109 115l-171 -115z" />
<glyph unicode="&#xf5;" d="M57 216q0 142 104 287q113 157 250 157q123 0 128 -180q1 -53 -11 -101l11 -5q46 -3 66 36q17 31 13 79q1 5 10 5q21 0 21 -45q0 -114 -127 -113l-39 -92q-103 -244 -253 -244q-80 0 -129 70q-44 63 -44 146zM159 145q0 -114 83 -114q125 0 220 249q21 55 24 65 q-8 11 -25 35q-20 31 -20 73q0 69 51 88q2 30 -19.5 58t-51.5 28q-93 0 -183 -199q-79 -174 -79 -283zM263 800q88 74 137 74q38 0 86 -19q38 -15 59 -15q42 0 81 29l18 -14q-78 -80 -146 -80q-29 0 -80 20q-39 15 -69 15q-29 0 -68 -22z" />
<glyph unicode="&#xf6;" d="M57 216q0 142 104 287q113 157 250 157q123 0 128 -180q1 -53 -11 -101l11 -5q46 -3 66 36q17 31 13 79q1 5 10 5q21 0 21 -45q0 -114 -127 -113l-39 -92q-103 -244 -253 -244q-80 0 -129 70q-44 63 -44 146zM159 145q0 -114 83 -114q125 0 220 249q21 55 24 65 q-8 11 -25 35q-20 31 -20 73q0 69 51 88q2 30 -19.5 58t-51.5 28q-93 0 -183 -199q-79 -174 -79 -283zM279 799q0 26 16 58q22 44 60 44q46 0 46 -54q0 -35 -22 -69q-25 -39 -58 -39q-42 0 -42 60zM493 799q0 26 16 58q22 44 60 44q46 0 46 -54q0 -35 -22 -69 q-25 -39 -58 -39q-42 0 -42 60z" />
<glyph unicode="&#xf8;" d="M-2 -132l126 176q-67 66 -67 172q0 142 104 287q113 157 250 157q67 0 99 -53q32 50 55 90q6 -4 19 -4q15 0 26 7q19 12 23 14q-53 -72 -106 -146q11 -36 12 -88q1 -53 -11 -101l11 -5q46 -3 66 36q17 31 13 79q1 5 10 5q21 0 21 -45q0 -114 -127 -113l-39 -92 q-103 -244 -253 -244q-44 0 -79 22q-41 -63 -81 -127q-3 0 -8.5 1t-8.5 1q-18 0 -55 -29zM159 145q0 -26 4 -45q209 294 324 472q-5 14 -15 27q-22 28 -51 28q-93 0 -183 -199q-79 -174 -79 -283zM178 62q21 -31 64 -31q125 0 220 249q21 55 24 65q-8 11 -25 35 q-19 29 -20 69q-134 -190 -263 -387z" />
<glyph unicode="&#xf9;" horiz-adv-x="644" d="M75 540q10 39 48 75.5t76 36.5q90 0 90 -124q0 -67 -64 -217t-64 -215q0 -61 48 -61q40 0 89 60q33 41 56.5 90t78.5 180q35 98 102 278q13 6 52 6q32 0 51 -4q-23 -74 -159 -464q-27 -78 -27 -107q0 -38 32 -38q31 0 70 53q10 14 49 69h22v-15q-1 -1 -21 -38 q-58 -106 -137 -106q-82 0 -109 131q-54 -72 -67 -85q-40 -39 -86 -39q-68 0 -102 60q-25 44 -25 99q0 66 61 211.5t61 192.5q0 42 -23 42q-33 0 -76 -71h-26zM279 882q0 44 39 44q22 0 69 -51q26 -27 121 -124l-18 -17l-157 91q-54 31 -54 57z" />
<glyph unicode="&#xfa;" horiz-adv-x="644" d="M75 540q10 39 48 75.5t76 36.5q90 0 90 -124q0 -67 -64 -217t-64 -215q0 -61 48 -61q40 0 89 60q33 41 56.5 90t78.5 180q35 98 102 278q13 6 52 6q32 0 51 -4q-23 -74 -159 -464q-27 -78 -27 -107q0 -38 32 -38q31 0 70 53q10 14 49 69h22v-15q-1 -1 -21 -38 q-58 -106 -137 -106q-82 0 -109 131q-54 -72 -67 -85q-40 -39 -86 -39q-68 0 -102 60q-25 44 -25 99q0 66 61 211.5t61 192.5q0 42 -23 42q-33 0 -76 -71h-26zM341 751q67 67 121 124q48 51 69 51q39 0 39 -44q0 -26 -54 -57l-157 -91z" />
<glyph unicode="&#xfb;" horiz-adv-x="644" d="M75 540q10 39 48 75.5t76 36.5q90 0 90 -124q0 -67 -64 -217t-64 -215q0 -61 48 -61q40 0 89 60q33 41 56.5 90t78.5 180q35 98 102 278q13 6 52 6q32 0 51 -4q-23 -74 -159 -464q-27 -78 -27 -107q0 -38 32 -38q31 0 70 53q10 14 49 69h22v-15q-1 -1 -21 -38 q-58 -106 -137 -106q-82 0 -109 131q-54 -72 -67 -85q-40 -39 -86 -39q-68 0 -102 60q-25 44 -25 99q0 66 61 211.5t61 192.5q0 42 -23 42q-33 0 -76 -71h-26zM251 748l123 139q37 42 61 42q21 0 46 -40l91 -146l-25 -8l-109 115l-171 -115z" />
<glyph unicode="&#xfc;" horiz-adv-x="644" d="M75 540q10 39 48 75.5t76 36.5q90 0 90 -124q0 -67 -64 -217t-64 -215q0 -61 48 -61q40 0 89 60q33 41 56.5 90t78.5 180q35 98 102 278q13 6 52 6q32 0 51 -4q-23 -74 -159 -464q-27 -78 -27 -107q0 -38 32 -38q31 0 70 53q10 14 49 69h22v-15q-1 -1 -21 -38 q-58 -106 -137 -106q-82 0 -109 131q-54 -72 -67 -85q-40 -39 -86 -39q-68 0 -102 60q-25 44 -25 99q0 66 61 211.5t61 192.5q0 42 -23 42q-33 0 -76 -71h-26zM254 799q0 26 16 58q22 44 60 44q46 0 46 -54q0 -35 -22 -69q-25 -39 -58 -39q-42 0 -42 60zM468 799q0 26 16 58 q22 44 60 44q46 0 46 -54q0 -35 -22 -69q-25 -39 -58 -39q-42 0 -42 60z" />
<glyph unicode="&#xfd;" horiz-adv-x="597" d="M-111 -487q0 150 133 293q114 121 270 189q10 4 20.5 39t29.5 95l7 25q-96 -129 -154 -129q-60 0 -93 49q-29 43 -29 106q0 64 61 209.5t61 193.5q0 41 -25 41q-23 0 -74 -68h-23q11 36 47.5 70.5t71.5 34.5q84 0 84 -115q0 -69 -63.5 -224t-63.5 -210q0 -63 48 -63 q36 0 74 47q107 131 191 380q24 70 67 180q11 5 49 5q28 0 49 -4q-33 -90 -89 -253l-68 -197q-30 -82 -100 -290q-57 -178 -145 -317q-126 -200 -249 -200q-87 0 -87 113zM-77 -500q0 -70 55 -70q121 0 259 392q40 113 40 109l8 27l-20 -8q-101 -41 -189 -142 q-82 -95 -125 -192q-28 -63 -28 -116zM306 751q67 67 121 124q48 51 69 51q39 0 39 -44q0 -26 -54 -57l-157 -91z" />
<glyph unicode="&#xff;" horiz-adv-x="597" d="M-111 -487q0 150 133 293q114 121 270 189q10 4 20.5 39t29.5 95l7 25q-96 -129 -154 -129q-60 0 -93 49q-29 43 -29 106q0 64 61 209.5t61 193.5q0 41 -25 41q-23 0 -74 -68h-23q11 36 47.5 70.5t71.5 34.5q84 0 84 -115q0 -69 -63.5 -224t-63.5 -210q0 -63 48 -63 q36 0 74 47q107 131 191 380q24 70 67 180q11 5 49 5q28 0 49 -4q-33 -90 -89 -253l-68 -197q-30 -82 -100 -290q-57 -178 -145 -317q-126 -200 -249 -200q-87 0 -87 113zM-77 -500q0 -70 55 -70q121 0 259 392q40 113 40 109l8 27l-20 -8q-101 -41 -189 -142 q-82 -95 -125 -192q-28 -63 -28 -116zM235 799q0 26 16 58q22 44 60 44q46 0 46 -54q0 -35 -22 -69q-25 -39 -58 -39q-42 0 -42 60zM449 799q0 26 16 58q22 44 60 44q46 0 46 -54q0 -35 -22 -69q-25 -39 -58 -39q-42 0 -42 60z" />
<glyph unicode="&#x152;" horiz-adv-x="1941" d="M63 411q0 306 231 569q239 273 541 273q48 0 88 -18q52 -23 52 -65q0 1 -5 -12q-28 65 -138 65q-96 0 -226 -71q-203 -111 -340 -407q-121 -261 -121 -480q0 -137 55 -231q71 -121 217 -121q239 0 408 298q-15 51 -15 106q0 163 159 274q33 137 33 222q0 102 -29 175 q-41 102 -126 102q-164 0 -266 -221q-76 -165 -76 -306q0 -131 55 -232q14 -26 45.5 -41.5t32.5 -17.5q-21 -12 -29 -12q-70 0 -109 121q-29 91 -29 182q0 165 98 352q122 233 304 233q100 0 147 -100q33 -71 33 -167q0 -103 -39 -262q113 64 269 98q-75 80 -107 186 q-21 17 -62 57q-52 61 -52 148q0 64 41 111t105 47q18 0 41 -10q27 -11 27 -26t-12 -15q-5 0 -25 12t-24 12q-52 0 -83 -51q-26 -44 -26 -99q0 -78 69 -140q56 137 218 209q129 57 274 57q224 0 224 -128q0 -136 -184 -208q-125 -49 -239 -49q-62 0 -184 29h-16 q-2 -3 -2 -15q0 -21 18 -64q23 -55 51 -55q175 20 187 20q104 0 104 -23q0 -38 -51 -59q-39 -16 -85 -16q-32 0 -89.5 18.5t-71.5 18.5q-22 -8 -92 -36q-134 -54 -231 -174q-104 -129 -104 -266q0 -145 145 -223q111 -60 244 -60q153 0 309 102q179 117 179 285 q0 114 -105 114q-29 0 -62 -14q-44 -19 -44 -47q0 -2 17 -19t17 -33q0 -22 -17 -41.5t-39 -19.5q-56 0 -56 60q0 58 59 105q56 43 116 43q69 0 110.5 -46t41.5 -116q0 -205 -178 -317q-143 -90 -327 -90q-148 0 -280 74q-141 80 -195 210q-178 -290 -423 -290 q-200 0 -290 206q-61 139 -61 320zM1271 904q78 -43 204 -43q91 0 212 48q170 68 170 178q0 94 -168 94q-128 0 -244 -63q-144 -78 -174 -214z" />
<glyph unicode="&#x153;" horiz-adv-x="915" d="M57 216q0 142 104 287q113 157 250 157q133 0 129 -194q119 197 273 197q50 0 81.5 -31t31.5 -81q0 -158 -250 -235q-12 -4 -82 -22q-36 -27 -36 -153q0 -111 84 -111q76 0 186 153h23q-26 -68 -86 -123q-67 -61 -134 -61q-84 0 -122 61q-2 4 -51 131q-98 -191 -228 -191 q-80 0 -129 70q-44 63 -44 146zM159 145q0 -114 83 -114q68 0 137 93q52 70 83 156q15 41 20 62q-2 10 -23 44q-18 30 -18 67q0 69 51 88q2 30 -19.5 57.5t-51.5 27.5q-93 0 -183 -198q-79 -173 -79 -283zM606 336h28q44 0 109 55q63 52 79 96q19 53 19 86q0 56 -34 56 q-87 0 -183 -237q-17 -42 -18 -56z" />
<glyph unicode="&#x178;" horiz-adv-x="1339" d="M20 701q0 201 160 352t362 151q129 0 202 -63q78 -66 78 -193q0 -126 -115.5 -385t-115.5 -386q0 -69 34 -115q39 -51 106 -51q116 0 244 127q115 114 173 257q9 49 28 148q43 209 121 209q25 0 25 -32q0 -20 -60 -160q-63 -147 -66 -161q-17 -80 -32 -234 q-17 -179 -33 -266q-41 -227 -257 -380q-194 -138 -402 -138q-100 0 -173 43q-92 54 -92 161q0 60 32 101q35 45 94 45q37 0 66 -23.5t29 -59.5q0 -63 -60 -63q-53 0 -53 56q0 17 7 37q-5 6 -13 6q-68 0 -68 -94q0 -88 68 -135q59 -40 151 -40q245 0 436 233 q154 187 210 452q40 189 40 212q0 6 -2 8q-212 -334 -415 -334q-106 0 -163 76q-52 68 -52 177q0 140 128.5 397t128.5 354q0 83 -54.5 131.5t-138.5 48.5q-180 0 -347 -165t-167 -345q0 -68 47 -109.5t116 -41.5q112 0 197 105q81 100 81 214q0 11 -1 23q16 -22 16 -60 q0 -109 -91 -208t-199 -99q-95 0 -152.5 60.5t-57.5 156.5zM950 1400q0 26 16 58q22 44 60 44q46 0 46 -54q0 -35 -22 -69q-25 -39 -58 -39q-42 0 -42 60zM1164 1400q0 26 16 58q22 44 60 44q46 0 46 -54q0 -35 -22 -69q-25 -39 -58 -39q-42 0 -42 60z" />
<glyph unicode="&#x2c6;" horiz-adv-x="345" d="M8 748l123 139q37 42 61 42q21 0 46 -40l91 -146l-25 -8l-109 115l-171 -115z" />
<glyph unicode="&#x2dc;" horiz-adv-x="423" d="M35 800q88 74 137 74q38 0 86 -19q38 -15 59 -15q42 0 81 29l18 -14q-78 -80 -146 -80q-29 0 -80 20q-39 15 -69 15q-29 0 -68 -22z" />
<glyph unicode="&#x2000;" horiz-adv-x="789" />
<glyph unicode="&#x2001;" horiz-adv-x="1578" />
<glyph unicode="&#x2002;" horiz-adv-x="789" />
<glyph unicode="&#x2003;" horiz-adv-x="1578" />
<glyph unicode="&#x2004;" horiz-adv-x="526" />
<glyph unicode="&#x2005;" horiz-adv-x="394" />
<glyph unicode="&#x2006;" horiz-adv-x="263" />
<glyph unicode="&#x2007;" horiz-adv-x="263" />
<glyph unicode="&#x2008;" horiz-adv-x="197" />
<glyph unicode="&#x2009;" horiz-adv-x="315" />
<glyph unicode="&#x200a;" horiz-adv-x="87" />
<glyph unicode="&#x2010;" horiz-adv-x="400" d="M135 266q11 28 17 60q54 -2 84 -2q37 0 69 2q-11 -35 -14 -60q-33 3 -64 3q-29 0 -92 -3z" />
<glyph unicode="&#x2011;" horiz-adv-x="400" d="M135 266q11 28 17 60q54 -2 84 -2q37 0 69 2q-11 -35 -14 -60q-33 3 -64 3q-29 0 -92 -3z" />
<glyph unicode="&#x2012;" horiz-adv-x="400" d="M135 266q11 28 17 60q54 -2 84 -2q37 0 69 2q-11 -35 -14 -60q-33 3 -64 3q-29 0 -92 -3z" />
<glyph unicode="&#x2013;" horiz-adv-x="714" d="M136 266q2 17 17 60l248 -2q66 -1 178 2q-20 -33 -27 -60q-71 2 -174 2q-105 0 -242 -2z" />
<glyph unicode="&#x2014;" horiz-adv-x="1401" d="M136 266q2 17 17 60q148 -2 935 -2q90 0 178 2q-20 -33 -27 -60q-71 2 -174 2z" />
<glyph unicode="&#x2018;" horiz-adv-x="400" d="M426 1136q0 76 52 76q32 0 61 -38q26 -35 26 -69q0 -54 -69 -52q11 -50 102 -123l-3 -2q-59 19 -114 83.5t-55 124.5z" />
<glyph unicode="&#x2019;" horiz-adv-x="400" d="M390 930q91 73 102 123q-69 -2 -69 52q0 34 27.5 70.5t59.5 36.5q52 0 52 -76q0 -60 -55 -124.5t-114 -83.5z" />
<glyph unicode="&#x201c;" d="M234 1136q0 76 52 76q32 0 61 -38q26 -35 26 -69q0 -54 -68 -52q10 -50 101 -123l-3 -2q-59 19 -113 82q-56 67 -56 126zM505 1136q0 76 53 76q36 0 63 -42q23 -35 23 -65q0 -54 -68 -52q11 -51 101 -123l-2 -2q-59 19 -113 82q-57 66 -57 126z" />
<glyph unicode="&#x201d;" d="M325 930q91 73 101 123q-68 -2 -68 52q0 34 27.5 70.5t59.5 36.5q52 0 52 -76q0 -59 -56 -126q-54 -63 -113 -82zM596 930q91 73 101 123q-68 -2 -68 52q0 34 27.5 70.5t59.5 36.5q52 0 52 -76q0 -59 -56 -126q-54 -63 -113 -82z" />
<glyph unicode="&#x2022;" horiz-adv-x="1024" d="M307 488q0 86 59.5 145.5t145.5 59.5t145.5 -59.5t59.5 -145.5t-59.5 -145.5t-145.5 -59.5t-145.5 59.5t-59.5 145.5z" />
<glyph unicode="&#x2026;" horiz-adv-x="1200" d="M137 61q0 37 21 71q23 38 58 38q47 0 47 -56q0 -38 -21 -73q-23 -41 -59 -41q-46 0 -46 61zM537 61q0 37 21 71q23 38 58 38q47 0 47 -56q0 -38 -21 -73q-23 -41 -59 -41q-46 0 -46 61zM937 61q0 37 21 71q23 38 58 38q47 0 47 -56q0 -38 -21 -73q-23 -41 -59 -41 q-46 0 -46 61z" />
<glyph unicode="&#x202f;" horiz-adv-x="315" />
<glyph unicode="&#x2039;" horiz-adv-x="391" d="M93 305l23 58q144 92 235 217l16 -14q-98 -175 -184 -242q30 -115 35 -262l-20 -5q-18 112 -105 248z" />
<glyph unicode="&#x203a;" horiz-adv-x="391" d="M37 71q98 175 185 243q-31 114 -35 261l19 5q18 -112 106 -247l-24 -59q-144 -92 -234 -217z" />
<glyph unicode="&#x205f;" horiz-adv-x="394" />
<glyph unicode="&#x2122;" horiz-adv-x="1355" d="M101 1419v90h496v-90h-198v-517h-101v517h-197zM665 902v607h149l153 -485l149 485h146v-607h-93v510l-156 -510h-92l-163 517v-517h-93z" />
<glyph unicode="&#x25fc;" horiz-adv-x="645" d="M0 0v645h645v-645h-645z" />
</font>
</defs>
</svg>
